<?xml version="1.0" encoding="utf-8"?>
<!-- Generator: Adobe Illustrator 22.0.1, SVG Export Plug-In . SVG Version: 6.00 Build 0)  -->
<svg version="1.1" id="Livello_1" xmlns="http://www.w3.org/2000/svg" xmlns:xlink="http://www.w3.org/1999/xlink" x="0px" y="0px"
	 viewBox="0 0 130 130" style="enable-background:new 0 0 130 130;" xml:space="preserve">
<style type="text/css">
	.st0{fill:#64C5B8;}
	.st1{fill:#EDEDED;}
	.st2{fill:#FFEC00;}
</style>
<g>
	<g>
		<path class="st0" d="M42.3,11.8c0-1.2,0-2.3,0-3.4c0-1.5,0.4-1.9,1.9-1.9c3.5,0,6.9,0,10.4,0c1.3-4,3.8-6.4,8.1-6.2
			c3.8,0.2,6,2.5,7.1,6.2c3.4,0,6.8,0,10.2,0c1.8,0,2.2,0.3,2.2,2.2c0,1,0,2.1,0,3.2c0.8,0,1.4,0,2.1,0c7.1,0,14.2,0,21.3,0
			c1.8,0,2.1,0.3,2.1,2.1c0,38,0,76,0,114c0,1.6-0.4,2-2,2c-29,0-57.9,0-86.9,0c-1.6,0-2-0.4-2-2c0-38,0-76,0-114
			c0-1.8,0.3-2.1,2.1-2.1c7.3,0,14.6,0,21.9,0C41.3,11.8,41.7,11.8,42.3,11.8z M26,14.7c-2.1,0-4.1,0-6.2,0c0,37.5,0,74.9,0,112.4
			c2.1,0,4.1,0,6.2,0c0.2,0,0.3,0,0.5,0c25.8,0,51.5,0,77.3,0c0.3,0,0.7-0.1,1-0.1c0-37.5,0-74.9,0-112.3c-7.5,0-14.9,0-22.5,0
			c0,1,0,1.9,0,2.8c0,2-0.4,2.3-2.3,2.3c-10,0-20.1,0-30.1,0c-1.9,0-3.8,0-5.7,0c-1.3,0-1.8-0.5-1.8-1.8c0-1.1,0-2.1,0-3.3
			C36.8,14.7,31.4,14.7,26,14.7z M79.3,9.3c-3.5,0-6.9,0-10.2,0c-1.5,0-1.9-0.3-2.1-1.8c-0.4-2.6-2.2-4.4-4.8-4.4
			c-2.5,0-4.4,1.7-4.7,4.4c-0.1,1.3-0.7,1.8-2,1.8c-3,0-6.1,0-9.1,0c-0.4,0-0.8,0-1.2,0.1c0,2.6,0,5.1,0,7.6c11.4,0,22.7,0,34.1,0
			C79.3,14.4,79.3,11.9,79.3,9.3z"/>
		<path class="st1" d="M26,14.7c5.4,0,10.8,0,16.3,0c0,1.2,0,2.2,0,3.3c0,1.3,0.5,1.8,1.8,1.8c1.9,0,3.8,0,5.7,0c10,0,20.1,0,30.1,0
			c2,0,2.3-0.4,2.3-2.3c0-0.9,0-1.8,0-2.8c7.5,0,15,0,22.5,0c0,37.4,0,74.8,0,112.3c-0.3,0-0.6,0.1-1,0.1c-25.8,0-51.5,0-77.3,0
			c-0.2,0-0.3,0-0.5,0c0-0.7,0-1.4,0-2.1c0-31.1,0-62.2,0-93.3C26,26.1,26,20.4,26,14.7z M47.6,58.1c0,1.6-0.1,2.8,0,3.9
			c0.3,2.2,2.1,3.3,4.2,2.5c1-0.4,2-1.1,2.7-1.9c2-2.5,3-5.4,3.1-8.6c0.1-2.5,0.6-4.9,1.9-7.1c0.6-1,1-2,1.4-3.1
			c1.4-4.7-1.4-11.5-8.6-9.9c-3.9,0.9-7.5,0.8-11.3-0.1c-3.7-0.9-7,1.4-8,5c-0.8,2.6-0.4,5.1,1,7.4c1.5,2.6,2.2,5.3,2.3,8.3
			c0.1,3,1.1,5.7,3,8c0.7,0.9,1.7,1.6,2.8,2c2,0.8,3.8-0.3,4.1-2.4c0.2-1,0.1-2,0.1-3c0-1.2,0-2.4,0.1-3.6c0-0.3,0.4-0.6,0.6-0.9
			c0.2,0.3,0.6,0.6,0.6,1C47.6,56.5,47.6,57.5,47.6,58.1z M62.2,92.5c9.1,0,18.2,0,27.2,0c1.8,0,2.6-0.5,2.6-1.5
			c0-1-0.8-1.5-2.6-1.5c-18.1,0-36.2,0-54.4,0c-1.8,0-2.6,0.4-2.6,1.5c0,1,0.8,1.5,2.6,1.5C44.1,92.5,53.2,92.5,62.2,92.5z
			 M62.1,103.7c5.5,0,11.1,0,16.6,0c3.8,0,7.7,0,11.5,0c1,0,1.7-0.4,1.7-1.5c0-1-0.7-1.4-1.7-1.3c-0.2,0-0.4,0-0.6,0
			c-18.2,0-36.5,0-54.7,0c-0.4,0-0.9-0.1-1.1,0.1c-0.5,0.3-1.1,0.7-1.1,1.2c-0.1,0.4,0.4,1.1,0.8,1.4c0.3,0.3,0.9,0.2,1.4,0.2
			C43.9,103.7,53,103.7,62.1,103.7z M62.1,81.2c9.2,0,18.3,0,27.5,0c0.4,0,0.9,0.1,1.1-0.1c0.5-0.3,1.1-0.8,1.2-1.3
			c0.1-0.4-0.5-1-0.9-1.3c-0.3-0.2-0.8-0.1-1.3-0.1c-18.3,0-36.7,0-55,0c-0.4,0-1-0.1-1.3,0.1c-0.4,0.3-1,0.9-0.9,1.3
			c0.1,0.5,0.7,1,1.2,1.3c0.3,0.2,0.8,0.1,1.1,0.1C44,81.2,53,81.2,62.1,81.2z M62.3,114.9c9.1,0,18.2,0,27.2,0c0.4,0,1,0.1,1.3-0.1
			c0.5-0.3,1.2-0.9,1.1-1.3c-0.1-0.5-0.7-1-1.2-1.4c-0.2-0.2-0.7-0.1-1-0.1c-18.3,0-36.7,0-55,0c-0.3,0-0.8-0.1-1,0.1
			c-0.5,0.4-1.1,0.8-1.1,1.3c-0.1,0.4,0.5,1,1,1.3c0.3,0.2,0.9,0.1,1.4,0.1C44,114.9,53.2,114.9,62.3,114.9z M78.5,47.7
			c2.9,0,5.8,0,8.7,0c1.1,0,2.2,0,3.2,0c0.9,0,1.5-0.5,1.5-1.4c0-0.9-0.6-1.4-1.5-1.5c-0.3,0-0.5,0-0.8,0c-7.5,0-15,0-22.4,0
			c-0.4,0-1-0.1-1.3,0.1c-0.4,0.3-0.9,0.8-0.9,1.2c0,0.5,0.5,1.1,0.9,1.4c0.3,0.2,0.9,0.2,1.4,0.2C71.1,47.7,74.8,47.7,78.5,47.7z
			 M78.5,36.4C78.5,36.4,78.5,36.4,78.5,36.4c3.9,0,7.8,0,11.7,0c1,0,1.8-0.3,1.8-1.4c0-1.1-0.8-1.5-1.8-1.5c-7.7,0-15.5,0-23.2,0
			c-1,0-1.9,0.3-1.9,1.5c0,1.2,0.9,1.4,1.9,1.4C70.8,36.4,74.6,36.4,78.5,36.4z M78.5,58.8c1.9,0,3.9,0,5.8,0c2,0,4.1,0,6.1,0
			c1,0,1.6-0.5,1.6-1.5c0-0.9-0.6-1.4-1.6-1.4c-0.3,0-0.6,0-0.9,0c-6.2,0-12.4,0-18.5,0c-1.5,0-2.9,0-4.4,0c-0.9,0-1.5,0.4-1.5,1.4
			c0,0.9,0.6,1.4,1.5,1.4c0.3,0,0.6,0,0.9,0C71.1,58.9,74.8,58.9,78.5,58.8z M78.5,70c1.8,0,3.6,0,5.4,0c2.2,0,4.3,0,6.5,0
			c0.9,0,1.5-0.5,1.5-1.4c0-0.9-0.6-1.4-1.5-1.4c-0.3,0-0.6,0-0.9,0c-5.6,0-11.1,0-16.7,0c-2.1,0-4.2,0-6.3,0
			c-0.9,0-1.5,0.5-1.5,1.5c0,0.9,0.6,1.3,1.4,1.4c0.3,0,0.6,0,0.9,0C71.1,70,74.8,70,78.5,70z"/>
		<path class="st2" d="M79.3,9.3c0,2.6,0,5.1,0,7.7c-11.4,0-22.7,0-34.1,0c0-2.5,0-5,0-7.6c0.4,0,0.8-0.1,1.2-0.1c3,0,6.1,0,9.1,0
			c1.3,0,1.9-0.5,2-1.8c0.3-2.7,2.2-4.4,4.7-4.4c2.5,0,4.4,1.7,4.8,4.4c0.2,1.5,0.5,1.8,2.1,1.8C72.4,9.3,75.8,9.3,79.3,9.3z"/>
		<path class="st0" d="M47.6,58.1c0-0.5,0-1.6-0.2-2.6c0-0.3-0.4-0.7-0.6-1c-0.2,0.3-0.6,0.6-0.6,0.9c-0.1,1.2-0.1,2.4-0.1,3.6
			c0,1,0.1,2-0.1,3c-0.3,2.1-2.1,3.2-4.1,2.4c-1-0.4-2.1-1.2-2.8-2c-1.9-2.3-2.9-5-3-8c-0.1-3-0.7-5.7-2.3-8.3
			c-1.4-2.3-1.7-4.8-1-7.4c1.1-3.7,4.3-5.9,8-5c3.8,0.9,7.4,1,11.3,0.1c7.3-1.7,10,5.2,8.6,9.9c-0.3,1.1-0.8,2.1-1.4,3.1
			c-1.3,2.2-1.8,4.6-1.9,7.1c-0.1,3.2-1.1,6.1-3.1,8.6c-0.7,0.8-1.7,1.5-2.7,1.9c-2.1,0.8-3.9-0.3-4.2-2.5
			C47.5,60.8,47.6,59.7,47.6,58.1z M49,37.4c0.9,0.9,1.7,1.2,2.9,0.9c0.5-0.1,1.4,0.3,1.6,0.8c0.5,0.7,0.1,1.6-0.7,1.8
			c-1,0.2-2.3,0.5-3.2,0.2c-1.1-0.3-2.3-1.1-3.1-2c-1.8-1.7-3.9-2.3-6.2-2.6c-2.4-0.3-4.2,1.1-4.7,3.4c-0.4,1.9,0,3.7,1,5.3
			c1.6,2.7,2.3,5.6,2.3,8.6c0,2.3,0.8,4.5,2.1,6.4c0.4,0.7,1.2,1.1,1.8,1.7c0.1-0.1,0.2-0.1,0.3-0.2c0-0.4,0.1-0.8,0.1-1.2
			c0-1.8,0-3.6,0.1-5.4c0.2-2.2,1.5-3.4,3.5-3.4c2,0,3.3,1.2,3.5,3.4c0.1,1.5,0.1,3.1,0.1,4.7c0,0.7,0,1.3,0,2
			c0.1,0.1,0.3,0.2,0.4,0.2c0.6-0.5,1.3-1,1.7-1.6c1.4-2.1,2.2-4.4,2.2-6.9c0.1-2.8,0.7-5.5,2.1-7.9c0.6-1,1.1-2.2,1.3-3.3
			c0.5-3.4-1.3-6.5-5.6-5.6C51.5,36.8,50.4,37.1,49,37.4z"/>
		<path class="st0" d="M62.2,92.5c-9,0-18.1,0-27.1,0c-1.8,0-2.6-0.4-2.6-1.5c0-1,0.8-1.5,2.6-1.5c18.1,0,36.2,0,54.4,0
			c1.8,0,2.6,0.4,2.6,1.5c0,1-0.8,1.5-2.6,1.5C80.4,92.5,71.3,92.5,62.2,92.5z"/>
		<path class="st0" d="M62.1,103.7c-9.1,0-18.2,0-27.4,0c-0.5,0-1.1,0.1-1.4-0.2c-0.4-0.3-0.9-1-0.8-1.4c0.1-0.4,0.7-0.9,1.1-1.2
			c0.3-0.2,0.8-0.1,1.1-0.1c18.2,0,36.5,0,54.7,0c0.2,0,0.4,0,0.6,0c1,0,1.7,0.4,1.7,1.3c0,1.1-0.7,1.5-1.7,1.5c-3.8,0-7.7,0-11.5,0
			C73.2,103.7,67.7,103.7,62.1,103.7z"/>
		<path class="st0" d="M62.1,81.2c-9.1,0-18.2,0-27.2,0c-0.4,0-0.9,0.1-1.1-0.1c-0.5-0.3-1.1-0.8-1.2-1.3c-0.1-0.4,0.5-1,0.9-1.3
			c0.3-0.2,0.8-0.1,1.3-0.1c18.3,0,36.7,0,55,0c0.4,0,1-0.1,1.3,0.1c0.4,0.3,1,0.9,0.9,1.3c-0.1,0.5-0.7,1-1.2,1.3
			c-0.3,0.2-0.8,0.1-1.1,0.1C80.5,81.2,71.3,81.2,62.1,81.2z"/>
		<path class="st0" d="M62.3,114.9c-9.1,0-18.2,0-27.4,0c-0.5,0-1,0.1-1.4-0.1c-0.4-0.3-1-0.9-1-1.3c0.1-0.5,0.7-1,1.1-1.3
			c0.2-0.2,0.7-0.1,1-0.1c18.3,0,36.7,0,55,0c0.3,0,0.8-0.1,1,0.1c0.5,0.4,1.1,0.9,1.2,1.4c0,0.4-0.6,1-1.1,1.3
			c-0.3,0.2-0.8,0.1-1.3,0.1C80.4,114.9,71.4,114.9,62.3,114.9z"/>
		<path class="st0" d="M78.5,47.7c-3.7,0-7.4,0-11.1,0c-0.5,0-1.1,0.1-1.4-0.2c-0.4-0.3-0.9-0.9-0.9-1.4c0-0.4,0.5-0.9,0.9-1.2
			c0.3-0.2,0.8-0.1,1.3-0.1c7.5,0,15,0,22.4,0c0.3,0,0.5,0,0.8,0c0.9,0.1,1.5,0.5,1.5,1.5c0,0.9-0.6,1.4-1.5,1.4c-1.1,0-2.2,0-3.2,0
			C84.3,47.7,81.4,47.7,78.5,47.7z"/>
		<path class="st0" d="M78.5,36.4c-3.8,0-7.7,0-11.5,0c-1,0-1.9-0.3-1.9-1.4c0-1.1,0.9-1.5,1.9-1.5c7.7,0,15.5,0,23.2,0
			c1,0,1.9,0.4,1.8,1.5c0,1.1-0.8,1.4-1.8,1.4C86.3,36.4,82.4,36.4,78.5,36.4C78.5,36.4,78.5,36.4,78.5,36.4z"/>
		<path class="st0" d="M78.5,58.9c-3.7,0-7.3,0-11,0c-0.3,0-0.6,0-0.9,0c-0.9-0.1-1.5-0.5-1.5-1.4c0-1,0.6-1.4,1.5-1.4
			c1.5,0,2.9,0,4.4,0c6.2,0,12.4,0,18.5,0c0.3,0,0.6,0,0.9,0c0.9,0,1.5,0.5,1.6,1.4c0,1-0.6,1.5-1.6,1.5c-2,0-4.1,0-6.1,0
			C82.4,58.8,80.4,58.8,78.5,58.9z"/>
		<path class="st0" d="M78.5,70c-3.7,0-7.4,0-11.1,0c-0.3,0-0.6,0-0.9,0c-0.8-0.1-1.4-0.5-1.4-1.4c0-0.9,0.5-1.5,1.5-1.5
			c2.1,0,4.2,0,6.3,0c5.6,0,11.1,0,16.7,0c0.3,0,0.6,0,0.9,0c0.9,0.1,1.5,0.5,1.5,1.4c0,0.9-0.6,1.4-1.5,1.4c-2.2,0-4.3,0-6.5,0
			C82.1,70,80.3,70,78.5,70z"/>
	</g>
</g>
</svg>
