<?xml version="1.0" encoding="utf-8"?>
<!-- Generator: Adobe Illustrator 22.0.1, SVG Export Plug-In . SVG Version: 6.00 Build 0)  -->
<svg version="1.1" id="Livello_1" xmlns="http://www.w3.org/2000/svg" xmlns:xlink="http://www.w3.org/1999/xlink" x="0px" y="0px"
	 viewBox="0 0 244 35" style="enable-background:new 0 0 244 35;" xml:space="preserve">
<style type="text/css">
	.st0{fill:#469A9F;}
</style>
<g>
	<g>
		<path class="st0" d="M56.6,8.8c0.1,1.1,1,1.7,2.3,1.7c1.2,0,1.9-0.5,1.9-1.4c0-1.3-1.3-1.4-2.3-1.6c-1.1-0.3-2.5-0.6-2.5-2.3
			c0-1.4,1-2.2,2.7-2.2c1.5,0,2.6,0.6,2.9,2l-0.9,0.2c-0.2-0.9-0.9-1.4-2-1.4c-1.2,0-1.7,0.5-1.7,1.3c0,1.1,1,1.3,2.1,1.5
			c1.2,0.2,2.7,0.6,2.7,2.4c0,1.5-1.1,2.3-2.8,2.3c-1.3,0-2.9-0.4-3.1-2.3L56.6,8.8z"/>
		<path class="st0" d="M66.2,4v7.1h-0.9V4h-2.7V3.2H69V4H66.2z"/>
		<path class="st0" d="M76.9,7.8c0,2.3-1.1,3.5-3.2,3.5c-2.1,0-3.2-1.2-3.2-3.5V3.2h0.9v4.7c0,1.7,0.7,2.6,2.3,2.6
			c1.6,0,2.3-0.9,2.3-2.6V3.2h0.9V7.8z"/>
		<path class="st0" d="M81.6,3.2c2.5,0,4.2,1.6,4.2,4c0,2.5-1.8,4-4.2,4h-2.8v-8H81.6z M81.6,10.3c1.8,0,3.3-1,3.3-3.1
			c0-2.1-1.5-3.2-3.3-3.2h-1.8v6.3H81.6z"/>
		<path class="st0" d="M87.4,3.2h0.9v8h-0.9V3.2z"/>
		<path class="st0" d="M94.1,3c2.3,0,4.1,1.7,4.1,4.1c0,2.5-1.8,4.2-4.1,4.2c-2.3,0-4.1-1.7-4.1-4.2C89.9,4.7,91.8,3,94.1,3z
			 M94.1,10.4c1.8,0,3.2-1.2,3.2-3.3c0-2-1.4-3.3-3.2-3.3c-1.8,0-3.2,1.2-3.2,3.3C90.9,9.2,92.3,10.4,94.1,10.4z"/>
		<path class="st0" d="M4.3,13.6c2.3,0,4.1,1.7,4.1,4.1c0,2.5-1.8,4.2-4.1,4.2c-2.3,0-4.1-1.7-4.1-4.2C0.1,15.3,1.9,13.6,4.3,13.6z
			 M4.3,21c1.8,0,3.2-1.2,3.2-3.3s-1.4-3.3-3.2-3.3c-1.8,0-3.2,1.2-3.2,3.3C1.1,19.8,2.5,21,4.3,21z"/>
		<path class="st0" d="M12.8,13.8c2.5,0,4.2,1.6,4.2,4c0,2.5-1.8,4-4.2,4H10v-8H12.8z M12.8,20.9c1.8,0,3.3-1,3.3-3.1
			c0-2.1-1.5-3.2-3.3-3.2h-1.8v6.3H12.8z"/>
		<path class="st0" d="M22.4,13.6c2.3,0,4.1,1.7,4.1,4.1c0,2.5-1.8,4.2-4.1,4.2c-2.3,0-4.1-1.7-4.1-4.2C18.2,15.3,20,13.6,22.4,13.6
			z M22.4,21c1.8,0,3.2-1.2,3.2-3.3s-1.4-3.3-3.2-3.3c-1.8,0-3.2,1.2-3.2,3.3C19.2,19.8,20.6,21,22.4,21z"/>
		<path class="st0" d="M29.1,15.3L29.1,15.3c0,0,0,0.9,0,1.9v4.6h-0.9v-8h0.9l4.7,6.4h0c0,0,0-0.9,0-1.9v-4.6h0.9v8h-0.9L29.1,15.3z
			"/>
		<path class="st0" d="M39.9,14.6v7.1H39v-7.1h-2.7v-0.9h6.4v0.9H39.9z"/>
		<path class="st0" d="M47.5,13.6c2.3,0,4.1,1.7,4.1,4.1c0,2.5-1.8,4.2-4.1,4.2c-2.3,0-4.1-1.7-4.1-4.2
			C43.4,15.3,45.2,13.6,47.5,13.6z M47.5,21c1.8,0,3.2-1.2,3.2-3.3s-1.4-3.3-3.2-3.3c-1.8,0-3.2,1.2-3.2,3.3
			C44.3,19.8,45.7,21,47.5,21z"/>
		<path class="st0" d="M53.3,13.8h0.9v8h-0.9V13.8z"/>
		<path class="st0" d="M57.5,19.6l-0.9,2.1h-1l3.4-8h1l3.4,8h-1l-0.9-2.1H57.5z M60.3,16.7c-0.3-0.7-0.8-1.9-0.8-1.9h0
			c0,0-0.5,1.1-0.8,1.9l-0.9,2.1h3.3L60.3,16.7z"/>
		<path class="st0" d="M66.8,14.6v7.1h-0.9v-7.1h-2.7v-0.9h6.4v0.9H66.8z"/>
		<path class="st0" d="M73.8,18.6c-0.2,0-0.6,0-0.7,0h-1v3.1h-0.9v-8h2.4c1.9,0,3,0.9,3,2.5c0,1.2-0.7,2-1.8,2.2l2,3.3h-1.1
			L73.8,18.6z M73.7,17.9c1.2,0,1.9-0.4,1.9-1.6c0-1.1-0.8-1.7-2-1.7h-1.6v3.2H73.7z"/>
		<path class="st0" d="M78.4,13.8h0.9v8h-0.9V13.8z"/>
		<path class="st0" d="M88.7,19.5c-0.6,1.5-2,2.4-3.7,2.4c-2.3,0-4.1-1.6-4.1-4.2c0-2.5,1.8-4.1,4.1-4.1c1.9,0,3.1,1,3.6,2.2
			L87.7,16c-0.3-0.5-1.1-1.6-2.8-1.6c-1.9,0-3.2,1.3-3.2,3.3c0,2,1.4,3.3,3.1,3.3c1.3,0,2.4-0.7,2.9-1.7L88.7,19.5z"/>
		<path class="st0" d="M94.1,13.6c2.3,0,4.1,1.7,4.1,4.1c0,2.5-1.8,4.2-4.1,4.2c-2.3,0-4.1-1.7-4.1-4.2
			C89.9,15.3,91.8,13.6,94.1,13.6z M94.1,21c1.8,0,3.2-1.2,3.2-3.3s-1.4-3.3-3.2-3.3c-1.8,0-3.2,1.2-3.2,3.3
			C90.9,19.8,92.3,21,94.1,21z"/>
		<path class="st0" d="M48.8,32.4l-3.2-8h1l1.6,4.2c0.7,1.7,1.1,2.7,1.1,2.8h0c0,0,0.4-1.1,1-2.7l1.7-4.2h1l-3.2,8H48.8z"/>
		<path class="st0" d="M54.4,24.4h5.4v0.9h-4.5v2.5h3.5v0.9h-3.5v2.9h4.5v0.9h-5.4V24.4z"/>
		<path class="st0" d="M61.5,24.4h0.9v7.1h4.2v0.9h-5.1V24.4z"/>
		<path class="st0" d="M68.3,24.4h0.9v7.1h4.2v0.9h-5.1V24.4z"/>
		<path class="st0" d="M75,24.4h5.4v0.9h-4.5v2.5h3.5v0.9h-3.5v2.9h4.5v0.9H75V24.4z"/>
		<path class="st0" d="M85.4,25.2v7.1h-0.9v-7.1h-2.7v-0.9h6.4v0.9H85.4z"/>
		<path class="st0" d="M92.3,29.2c-0.2,0-0.6,0-0.7,0h-1v3.1h-0.9v-8h2.4c1.9,0,3,0.9,3,2.5c0,1.2-0.7,2-1.8,2.2l2,3.3h-1.1
			L92.3,29.2z M92.2,28.5c1.2,0,1.9-0.4,1.9-1.6c0-1.1-0.8-1.7-2-1.7h-1.6v3.2H92.2z"/>
		<path class="st0" d="M96.9,24.4h0.9v8h-0.9V24.4z"/>
	</g>
	<g>
		<rect x="101.5" y="0.4" class="st0" width="0.3" height="34.5"/>
	</g>
	<g>
		<path class="st0" d="M119,12.4c-1.1,2.8-3.7,4.5-6.8,4.5c-4.3,0-7.4-3-7.4-7.5c0-4.4,3.1-7.4,7.4-7.4c3.3,0,5.7,1.8,6.6,4.1
			L115.5,7c-0.7-1.2-1.9-1.8-3.4-1.8c-2.3,0-3.8,1.7-3.8,4.2c0,2.5,1.6,4.2,3.8,4.2c1.9,0,3-1,3.6-2.2L119,12.4z"/>
		<path class="st0" d="M123.9,14.3l-0.9,2.4h-3.6L125,2.3h3.9l5.5,14.4h-3.7l-0.9-2.4H123.9z M127.7,8.3c-0.4-1.2-0.8-2.1-0.8-2.1
			h-0.1c0,0-0.3,0.9-0.8,2.1l-1,2.9h3.7L127.7,8.3z"/>
		<path class="st0" d="M146,16.6c0-0.8,0-0.9,0-1h0c-0.8,0.7-2.4,1.3-4,1.3c-4,0-7.3-3-7.3-7.5c0-4.4,3.1-7.5,7.4-7.5
			c3.2,0,5.7,1.8,6.6,4.1L145.3,7c-0.6-0.9-1.6-1.8-3.4-1.8c-2.3,0-3.8,1.7-3.8,4.2c0,2.5,1.7,4.2,4.2,4.2c2,0,3.2-0.9,3.6-1.5v-0.7
			h-3.6V8.3h6.8v8.3H146z"/>
		<path class="st0" d="M151.1,2.3h3.4v14.4h-3.4V2.3z"/>
		<path class="st0" d="M163.7,2c4.4,0,7.5,3.1,7.5,7.5c0,4.4-3.2,7.5-7.5,7.5s-7.5-3.1-7.5-7.5C156.2,5.1,159.4,2,163.7,2z
			 M163.7,13.7c2.4,0,4.1-1.6,4.1-4.2c0-2.6-1.7-4.2-4.1-4.2s-4.1,1.6-4.1,4.2C159.6,12,161.4,13.7,163.7,13.7z"/>
		<path class="st0" d="M173,2.3h3.4v11.2h6.4v3.2H173V2.3z"/>
		<path class="st0" d="M184.6,2.3h3.4v14.4h-3.4V2.3z"/>
	</g>
	<g>
		<path class="st0" d="M109,32.1l-0.9,2.4h-3.6l5.5-14.4h3.9l5.5,14.4h-3.7l-0.9-2.4H109z M112.8,26.1c-0.4-1.2-0.8-2.1-0.8-2.1
			h-0.1c0,0-0.3,0.9-0.8,2.1l-1,2.9h3.7L112.8,26.1z"/>
		<path class="st0" d="M120.9,20.1h3.4v11.2h6.4v3.2h-9.8V20.1z"/>
		<path class="st0" d="M132.5,20.1h10.4v3.2h-7v2.5h5.1v2.9h-5.1v2.6h7.1v3.2h-10.5V20.1z"/>
		<path class="st0" d="M147.6,30c0.3,1.1,1.3,1.7,2.8,1.7c1.3,0,2.1-0.5,2.1-1.4c0-1.4-1.7-1.3-3.5-1.7c-1.9-0.5-4.3-1.4-4.3-4.4
			c0-2.9,2.2-4.4,5.4-4.4c2.9,0,5,1.2,5.8,3.8l-3.3,0.9c-0.3-1-1.2-1.6-2.6-1.6c-1.3,0-1.9,0.5-1.9,1.3c0,1.2,1.4,1.4,3.4,1.8
			c2.1,0.4,4.4,1.3,4.4,4.4c0,3-2.1,4.4-5.5,4.4c-2.5,0-5.3-0.8-6.1-3.9L147.6,30z"/>
		<path class="st0" d="M160.4,30c0.3,1.1,1.3,1.7,2.8,1.7c1.3,0,2.1-0.5,2.1-1.4c0-1.4-1.7-1.3-3.5-1.7c-1.9-0.5-4.3-1.4-4.3-4.4
			c0-2.9,2.2-4.4,5.4-4.4c2.9,0,5,1.2,5.8,3.8l-3.3,0.9c-0.3-1-1.2-1.6-2.6-1.6c-1.3,0-1.9,0.5-1.9,1.3c0,1.2,1.4,1.4,3.4,1.8
			c2.1,0.4,4.4,1.3,4.4,4.4c0,3-2.1,4.4-5.5,4.4c-2.5,0-5.3-0.8-6.1-3.9L160.4,30z"/>
		<path class="st0" d="M174.1,32.1l-0.9,2.4h-3.6l5.5-14.4h3.9l5.5,14.4h-3.7l-0.9-2.4H174.1z M177.9,26.1c-0.4-1.2-0.8-2.1-0.8-2.1
			H177c0,0-0.3,0.9-0.8,2.1l-1,2.9h3.7L177.9,26.1z"/>
		<path class="st0" d="M189.4,25.9L189.4,25.9c-0.1,0,0,1.8,0,3.7v4.9H186V20.1h3.5l6.1,8.4h0.1c0,0,0-1.9,0-3.4v-5h3.4v14.4h-3.5
			L189.4,25.9z"/>
		<path class="st0" d="M207.3,20.1c4.3,0,7.5,2.9,7.5,7.2c0,4.4-3.3,7.1-7.5,7.1h-6.1V20.1H207.3z M207.1,31.3
			c2.1,0,4.3-1.1,4.3-3.9c0-2.8-2.1-4-4.3-4h-2.5v8H207.1z"/>
		<path class="st0" d="M221.5,29.8h-0.7H220v4.7h-3.4V20.1h5.4c3.6,0,5.7,1.9,5.7,4.9c0,2-1,3.4-2.7,4.1l3.3,5.4h-4.1L221.5,29.8z
			 M222.2,27c1.3,0,2-0.6,2-1.8c0-1.2-0.7-1.9-2-1.9H220V27H222.2z"/>
		<path class="st0" d="M236.5,19.8c4.4,0,7.5,3.1,7.5,7.5c0,4.4-3.2,7.5-7.5,7.5s-7.5-3.1-7.5-7.5C229,22.9,232.1,19.8,236.5,19.8z
			 M236.5,31.5c2.4,0,4.1-1.6,4.1-4.2c0-2.6-1.7-4.2-4.1-4.2s-4.1,1.6-4.1,4.2C232.4,29.9,234.1,31.5,236.5,31.5z"/>
	</g>
</g>
</svg>
