<?xml version="1.0" encoding="utf-8"?>
<!-- Generator: Adobe Illustrator 22.0.1, SVG Export Plug-In . SVG Version: 6.00 Build 0)  -->
<svg version="1.1" id="Livello_1" xmlns="http://www.w3.org/2000/svg" xmlns:xlink="http://www.w3.org/1999/xlink" x="0px" y="0px"
	 viewBox="0 0 65 65" style="enable-background:new 0 0 65 65;" xml:space="preserve">
<style type="text/css">
	.st0{opacity:0.7;fill:#64C5B8;}
	.st1{fill:#727272;}
	.st2{fill:#64C5B8;}
</style>
<g>
	<path class="st0" d="M-36.3,44.6l-0.8,8.6h-8.3l-1-10.7c-1.8-0.2-3.6-0.4-5.6-0.5l-1.7,17.4h-8.3l-1.7-17.4c-2,0.1-3.8,0.3-5.6,0.5
		l-1,10.7h-8.3l-0.8-8.6c-6.9,2.2-10.5,5.4-10.5,8.6c0,5.5,11.2,11.4,32,11.4s32-5.8,32-11.4C-25.7,50-29.4,46.8-36.3,44.6z"/>
	<path class="st1" d="M-32.9,16.4l-4.2-1.2v-1.8c1.3-1.1,2.1-2.8,2.1-4.6V6.7c0-3.4-2.8-6.2-6.2-6.2s-6.2,2.8-6.2,6.2v2.1
		c0,1.8,0.8,3.5,2.1,4.6v1.8l-4.2,1.2c-1.8,0.5-3,2.1-3,4v1.3l-1-0.3v-1.8c1.3-1.1,2.1-2.8,2.1-4.6v-2.1c0-3.4-2.8-6.2-6.2-6.2
		c-3.4,0-6.2,2.8-6.2,6.2v2.1c0,1.8,0.8,3.5,2.1,4.6v1.8l-1,0.3v-1.3c0-1.8-1.2-3.5-3-4l-4.2-1.2v-1.8c1.3-1.1,2.1-2.8,2.1-4.6V6.7
		c0-3.4-2.8-6.2-6.2-6.2c-3.4,0-6.2,2.8-6.2,6.2v2.1c0,1.8,0.8,3.5,2.1,4.6v1.8l-4.2,1.2c-1.8,0.5-3,2.1-3,4v12.1
		c0,1.7,1.4,3.1,3.1,3.1c0.5,0,1-0.1,1.4-0.3l1.8,18.9h10.1l1.2-13.1c0.5,0.4,1.2,0.7,1.9,0.7c0.5,0,1-0.1,1.4-0.3l1.8,18.9h10.1
		l1.8-18.9c0.4,0.2,0.9,0.3,1.4,0.3c0.7,0,1.4-0.3,1.9-0.7l1.2,13.1h10.1l1.8-18.9c0.4,0.2,0.9,0.3,1.4,0.3c1.7,0,3.1-1.4,3.1-3.1
		V20.4C-29.9,18.5-31.1,16.9-32.9,16.4z M-45.4,6.7c0-2.3,1.9-4.1,4.1-4.1s4.1,1.9,4.1,4.1v2.1c0,2.3-1.9,4.1-4.1,4.1
		s-4.1-1.9-4.1-4.1V6.7z M-41.2,14.9c0.7,0,1.4-0.1,2.1-0.4v1.1c-0.3,0.4-1,1.3-2.1,1.3c-1.1,0-1.8-0.9-2.1-1.3v-1.1
		C-42.7,14.8-42,14.9-41.2,14.9z M-61.9,12.9c0-2.3,1.9-4.1,4.1-4.1s4.1,1.9,4.1,4.1v2.1c0,2.3-1.9,4.1-4.1,4.1s-4.1-1.9-4.1-4.1
		V12.9z M-57.7,21.1c0.7,0,1.4-0.1,2.1-0.4v1.1c-0.3,0.4-1,1.3-2.1,1.3s-1.8-0.9-2.1-1.3v-1.1C-59.2,21-58.5,21.1-57.7,21.1z
		 M-78.4,6.7c0-2.3,1.9-4.1,4.1-4.1c2.3,0,4.1,1.9,4.1,4.1v2.1c0,2.3-1.9,4.1-4.1,4.1c-2.3,0-4.1-1.9-4.1-4.1V6.7z M-74.3,14.9
		c0.7,0,1.4-0.1,2.1-0.4v1.1c-0.3,0.4-1,1.3-2.1,1.3c-1.1,0-1.8-0.9-2.1-1.3v-1.1C-75.7,14.8-75,14.9-74.3,14.9z M-82.5,33.5
		c-0.6,0-1-0.5-1-1V20.4c0-0.9,0.6-1.7,1.5-2l4.3-1.2c0.6,0.8,1.8,1.9,3.5,1.9c1.8,0,2.9-1.1,3.5-1.9l4.3,1.2c0.9,0.3,1.5,1.1,1.5,2
		v1.9l-1.1,0.3c-0.3,0.1-0.6,0.2-0.9,0.4v-0.8h-2.1v8.3h-10.3v-8.3h-2.1v10.3C-81.5,33.1-82,33.5-82.5,33.5z M-79.3,32.5h4v19.6
		h-2.2L-79.3,32.5z M-73.2,52.1V32.5h4l-1.9,19.6H-73.2z M-62.8,38.7h4v19.6h-2.2L-62.8,38.7z M-56.7,58.3V38.7h4l-1.9,19.6H-56.7z
		 M-48.5,38.7c0,0.6-0.5,1-1,1s-1-0.5-1-1V28.4h-2.1v8.3h-10.3v-8.3H-65v10.3c0,0.6-0.5,1-1,1s-1-0.5-1-1V26.6c0-0.9,0.6-1.7,1.5-2
		l4.3-1.2c0.6,0.8,1.8,1.9,3.5,1.9s2.9-1.1,3.5-1.9l4.3,1.2c0.9,0.3,1.5,1.1,1.5,2L-48.5,38.7L-48.5,38.7z M-46.3,32.5h4v19.6h-2.2
		L-46.3,32.5z M-40.2,52.1V32.5h4L-38,52.1H-40.2z M-31.9,32.5c0,0.6-0.5,1-1,1s-1-0.5-1-1V22.2h-2.1v8.3h-10.3v-8.3h-2.1V23
		c-0.3-0.2-0.6-0.3-0.9-0.4l-1.1-0.3v-1.9c0-0.9,0.6-1.7,1.5-2l4.3-1.2c0.6,0.8,1.8,1.9,3.5,1.9s2.9-1.1,3.5-1.9l4.3,1.2
		c0.9,0.3,1.5,1.1,1.5,2L-31.9,32.5L-31.9,32.5z"/>
</g>
<g transform="translate(0 -1)">
	<g>
		<g>
			<path class="st2" d="M21.3,45.5c2.7,3.8,5.3,7.2,7.1,9.3c0.3,0.3,0.5,0.6,0.7,0.9h-5.3c-0.6,0-1.1,0.5-1.1,1.1
				c0,0.6,0.5,1.1,1.1,1.1h17.3c0.6,0,1.1-0.5,1.1-1.1c0-0.6-0.5-1.1-1.1-1.1h-5.3c0.2-0.3,0.5-0.6,0.7-0.9c1.8-2.2,4.4-5.5,7.1-9.3
				c2.7-3.7,5-7.5,7.2-11.5c2.2-4.3,3.3-8,3.3-10.7c0-5.8-2.3-11.3-6.3-15.3c-0.3-0.3-0.7-0.4-1.1-0.3C46.4,7.7,46.1,8,46,8.4
				c-0.1,0.4,0,0.8,0.3,1.1C50,13.1,52,18.1,52,23.3c0,2.4-1,5.7-3.1,9.7c-2.1,3.9-4.4,7.7-7,11.3c-2.6,3.7-5.3,7.1-7,9.2
				c-0.6,0.7-1.1,1.3-1.6,1.9c-0.2,0.2-0.5,0.4-0.8,0.4s-0.6-0.1-0.8-0.4c-0.4-0.5-1-1.2-1.6-1.9c-1.7-2.1-4.4-5.5-7-9.2
				c-2.6-3.6-4.9-7.3-7-11.3C14,29,13,25.7,13,23.3c0-7.8,4.7-14.9,11.9-18c4.9-2,10.3-2,15.2,0c0.4,0.2,0.8,0.1,1.1-0.1
				c0.3-0.2,0.5-0.6,0.4-1c0-0.4-0.3-0.7-0.7-0.9c-11-4.7-23.7,0.5-28.4,11.5c-1.1,2.7-1.7,5.5-1.7,8.4c0,2.8,1.1,6.4,3.3,10.7
				C16.3,38,18.7,41.9,21.3,45.5z"/>
			<path class="st2" d="M32.5,13.5c0.6,0,1.1-0.5,1.1-1.1c0-0.6-0.5-1.1-1.1-1.1c-5.2,0-9.6,3.7-10.6,8.7s1.7,10.1,6.5,12.1
				s10.3,0.3,13.2-4c2.9-4.3,2.3-10-1.3-13.7c-0.3-0.3-0.7-0.4-1.1-0.3c-0.4,0.1-0.7,0.4-0.8,0.8c-0.1,0.4,0,0.8,0.3,1.1
				C41.6,19,42,23.5,39.7,27s-6.7,4.8-10.5,3.2s-6-5.6-5.2-9.7C24.8,16.4,28.4,13.5,32.5,13.5z"/>
			<path class="st2" d="M64.6,60.7l-6.7-11.9c-0.6-1.1-1.7-1.7-2.9-1.7h-7.7c-0.6,0-1.1,0.5-1.1,1.1c0,0.6,0.5,1.1,1.1,1.1H55
				c0.4,0,0.8,0.2,1.1,0.6l6.7,11.9c0.2,0.3,0.2,0.7,0,1c-0.2,0.4-0.6,0.6-1,0.6H3.4c-0.4,0-0.8-0.2-1-0.6c-0.2-0.3-0.2-0.7,0-1
				L9,49.8c0.2-0.4,0.6-0.6,1.1-0.6h7.7c0.6,0,1.1-0.5,1.1-1.1c0-0.6-0.5-1.1-1.1-1.1H10c-1.2,0-2.3,0.6-2.9,1.7L0.4,60.7
				c-0.6,1-0.5,2.2,0,3.2c0.6,1,1.7,1.7,2.9,1.6h58.3c1.2,0,2.3-0.6,2.9-1.6C65.1,62.9,65.1,61.7,64.6,60.7z"/>
			<path class="st2" d="M53.1,52.5h-4.3c-0.2,0-0.4,0.1-0.6,0.2l-3.3,2.2c-0.5,0.3-0.6,1-0.3,1.5c0.3,0.5,1,0.6,1.5,0.3l3-2h4
				c0.6,0,1.1-0.5,1.1-1.1C54.2,53,53.7,52.5,53.1,52.5z"/>
			<path class="st2" d="M46.6,60.1c0,0.6,0.5,1.1,1.1,1.1h8.7c0.6,0,1.1-0.5,1.1-1.1c0-0.6-0.5-1.1-1.1-1.1h-8.7
				C47.1,59,46.6,59.5,46.6,60.1z"/>
			<path class="st2" d="M19.5,56.8c0.5,0,0.9-0.3,1-0.8c0.1-0.5,0-1-0.4-1.2l-3.3-2.2c-0.2-0.1-0.4-0.2-0.6-0.2h-4.3
				c-0.6,0-1.1,0.5-1.1,1.1c0,0.6,0.5,1.1,1.1,1.1h4l3,2C19.1,56.8,19.3,56.8,19.5,56.8z"/>
			<path class="st2" d="M8.7,59c-0.6,0-1.1,0.5-1.1,1.1c0,0.6,0.5,1.1,1.1,1.1h8.7c0.6,0,1.1-0.5,1.1-1.1c0-0.6-0.5-1.1-1.1-1.1H8.7
				z"/>
		</g>
	</g>
</g>
</svg>
