<?xml version="1.0" encoding="utf-8"?>
<!-- Generator: Adobe Illustrator 22.0.1, SVG Export Plug-In . SVG Version: 6.00 Build 0)  -->
<svg version="1.1" id="Livello_1" xmlns="http://www.w3.org/2000/svg" xmlns:xlink="http://www.w3.org/1999/xlink" x="0px" y="0px"
	 viewBox="0 0 50 50" style="enable-background:new 0 0 50 50;" xml:space="preserve">
<style type="text/css">
	.st0{fill:#FFFFFF;}
</style>
<g>
	<path class="st0" d="M5.4,25.4c1.6,1.4,4.9,3.3,11.4,4.1l1.2,6l-1.3,0.4c-0.9,0.3-1.5,1-1.7,1.8c-0.2,0.9,0.1,1.8,0.8,2.4
		c0.7,0.6,1.6,0.8,2.5,0.5l0.8-0.2l0.4,1.7l-1.2,0.4c-1.3,0.5-1.9,1.8-1.5,3.1c0.4,1.3,1.8,2,3.1,1.6l0.7-0.2c0.9,1.9,2.9,3.1,5,2.9
		c2.1-0.2,3.8-1.8,4.3-3.9l0.4-2.2l2.1-0.7c1.2-0.4,1.9-1.6,1.7-2.8c-0.2-1.2-1.4-2.1-2.6-2l0.4-2.1l2.2-0.7
		c1.2-0.4,1.9-1.7,1.6-2.9c-0.3-1.2-1.5-2.1-2.7-1.9l0.2-1.2c6.4-0.9,9.7-2.7,11.4-4.1c1-0.9,1.8-2.1,2.1-3.5
		c1.4-6.2,0.9-14.5-3-18.2C38.8-0.9,30.3-1,25,3.3C19.7-1,11.2-0.9,6.4,3.7C2.5,7.4,2,15.6,3.4,21.9C3.7,23.2,4.4,24.5,5.4,25.4z
		 M18.5,29.7c2,0.2,4.1,0.3,6.5,0.3s4.5-0.1,6.5-0.3l-0.3,1.5l-11.5,3.8L18.5,29.7z M28.2,45.6c-0.3,1.5-1.6,2.6-3.2,2.6
		c-1.2,0-2.3-0.7-2.9-1.8l6.3-2.1L28.2,45.6z M31.9,40c0.3,0.2,0.5,0.5,0.5,0.8c0,0.3-0.2,0.6-0.6,0.7l-10.9,3.6l-1.6,0.5
		c-0.3,0.1-0.6,0-0.8-0.2c-0.2-0.2-0.3-0.5-0.3-0.8c0.1-0.3,0.3-0.5,0.6-0.6l12.5-4.1c0.1,0,0.2,0,0.3,0
		C31.7,39.9,31.8,39.9,31.9,40z M29.6,38.8L21,41.6l-0.4-1.7l9.3-3.1L29.6,38.8z M33.3,32.3c0.3,0,0.6,0.1,0.7,0.4
		c0.2,0.2,0.2,0.6,0,0.8c-0.1,0.2-0.3,0.3-0.5,0.4L17.8,39c-0.4,0.1-0.9-0.1-1-0.5c-0.1-0.4,0.1-0.9,0.5-1L33,32.3
		C33.1,32.3,33.2,32.3,33.3,32.3z M7.5,4.9c2.3-2,5.2-3.1,8.2-3c3.2,0,6.3,1.1,8.7,3.2c0.4,0.3,5.3,5.1,9.7,5.1
		c0.5,0,0.8-0.4,0.8-0.8s-0.4-0.8-0.8-0.8c-2.9,0-6.4-2.7-7.8-4C30.9,0.9,38.4,1,42.5,4.9c3.4,3.2,3.8,11,2.5,16.6
		c-0.2,1-0.8,1.9-1.5,2.6c-1.5,1.3-4.7,3-11.1,3.8c-2.5,0.3-4.9,0.4-7.4,0.4c-2.5,0-4.9-0.1-7.4-0.4c-6.4-0.8-9.6-2.5-11.1-3.8
		c-0.8-0.7-1.3-1.6-1.5-2.6C3.7,15.9,4.2,8.1,7.5,4.9z"/>
	<path class="st0" d="M7.4,17.5c0.3,0,0.5-0.1,0.7-0.3c0.2-0.2,0.2-0.5,0.1-0.7c-1.8-6.8,2.5-9,2.7-9.1c0.4-0.2,0.6-0.7,0.4-1.1
		c-0.2-0.4-0.7-0.6-1.1-0.4c-0.1,0-5.8,2.9-3.5,11C6.7,17.2,7,17.5,7.4,17.5z"/>
	<path class="st0" d="M14.2,5.1c0,0.5-0.4,0.8-0.8,0.8c-0.5,0-0.8-0.4-0.8-0.8c0-0.5,0.4-0.8,0.8-0.8C13.9,4.3,14.2,4.7,14.2,5.1z"
		/>
</g>
</svg>
