<?xml version="1.0" encoding="utf-8"?>
<!-- Generator: Adobe Illustrator 22.0.1, SVG Export Plug-In . SVG Version: 6.00 Build 0)  -->
<svg version="1.1" id="Livello_1" xmlns="http://www.w3.org/2000/svg" xmlns:xlink="http://www.w3.org/1999/xlink" x="0px" y="0px"
	 viewBox="0 0 65 65" style="enable-background:new 0 0 65 65;" xml:space="preserve">
<style type="text/css">
	.st0{opacity:0.7;fill:#64C5B8;}
	.st1{fill:#727272;}
	.st2{fill:#64C5B8;}
</style>
<g>
	<path class="st0" d="M-36.3,44.6l-0.8,8.6h-8.3l-1-10.7c-1.8-0.2-3.6-0.4-5.6-0.5l-1.7,17.4h-8.3l-1.7-17.4c-2,0.1-3.8,0.3-5.6,0.5
		l-1,10.7h-8.3l-0.8-8.6c-6.9,2.2-10.5,5.4-10.5,8.6c0,5.5,11.2,11.4,32,11.4s32-5.8,32-11.4C-25.7,50-29.4,46.8-36.3,44.6z"/>
	<path class="st1" d="M-32.9,16.4l-4.2-1.2v-1.8c1.3-1.1,2.1-2.8,2.1-4.6V6.7c0-3.4-2.8-6.2-6.2-6.2s-6.2,2.8-6.2,6.2v2.1
		c0,1.8,0.8,3.5,2.1,4.6v1.8l-4.2,1.2c-1.8,0.5-3,2.1-3,4v1.3l-1-0.3v-1.8c1.3-1.1,2.1-2.8,2.1-4.6v-2.1c0-3.4-2.8-6.2-6.2-6.2
		c-3.4,0-6.2,2.8-6.2,6.2v2.1c0,1.8,0.8,3.5,2.1,4.6v1.8l-1,0.3v-1.3c0-1.8-1.2-3.5-3-4l-4.2-1.2v-1.8c1.3-1.1,2.1-2.8,2.1-4.6V6.7
		c0-3.4-2.8-6.2-6.2-6.2c-3.4,0-6.2,2.8-6.2,6.2v2.1c0,1.8,0.8,3.5,2.1,4.6v1.8l-4.2,1.2c-1.8,0.5-3,2.1-3,4v12.1
		c0,1.7,1.4,3.1,3.1,3.1c0.5,0,1-0.1,1.4-0.3l1.8,18.9h10.1l1.2-13.1c0.5,0.4,1.2,0.7,1.9,0.7c0.5,0,1-0.1,1.4-0.3l1.8,18.9h10.1
		l1.8-18.9c0.4,0.2,0.9,0.3,1.4,0.3c0.7,0,1.4-0.3,1.9-0.7l1.2,13.1h10.1l1.8-18.9c0.4,0.2,0.9,0.3,1.4,0.3c1.7,0,3.1-1.4,3.1-3.1
		V20.4C-29.9,18.5-31.1,16.9-32.9,16.4z M-45.4,6.7c0-2.3,1.9-4.1,4.1-4.1s4.1,1.9,4.1,4.1v2.1c0,2.3-1.9,4.1-4.1,4.1
		s-4.1-1.9-4.1-4.1V6.7z M-41.2,14.9c0.7,0,1.4-0.1,2.1-0.4v1.1c-0.3,0.4-1,1.3-2.1,1.3c-1.1,0-1.8-0.9-2.1-1.3v-1.1
		C-42.7,14.8-42,14.9-41.2,14.9z M-61.9,12.9c0-2.3,1.9-4.1,4.1-4.1s4.1,1.9,4.1,4.1v2.1c0,2.3-1.9,4.1-4.1,4.1s-4.1-1.9-4.1-4.1
		V12.9z M-57.7,21.1c0.7,0,1.4-0.1,2.1-0.4v1.1c-0.3,0.4-1,1.3-2.1,1.3s-1.8-0.9-2.1-1.3v-1.1C-59.2,21-58.5,21.1-57.7,21.1z
		 M-78.4,6.7c0-2.3,1.9-4.1,4.1-4.1c2.3,0,4.1,1.9,4.1,4.1v2.1c0,2.3-1.9,4.1-4.1,4.1c-2.3,0-4.1-1.9-4.1-4.1V6.7z M-74.3,14.9
		c0.7,0,1.4-0.1,2.1-0.4v1.1c-0.3,0.4-1,1.3-2.1,1.3c-1.1,0-1.8-0.9-2.1-1.3v-1.1C-75.7,14.8-75,14.9-74.3,14.9z M-82.5,33.5
		c-0.6,0-1-0.5-1-1V20.4c0-0.9,0.6-1.7,1.5-2l4.3-1.2c0.6,0.8,1.8,1.9,3.5,1.9c1.8,0,2.9-1.1,3.5-1.9l4.3,1.2c0.9,0.3,1.5,1.1,1.5,2
		v1.9l-1.1,0.3c-0.3,0.1-0.6,0.2-0.9,0.4v-0.8h-2.1v8.3h-10.3v-8.3h-2.1v10.3C-81.5,33.1-82,33.5-82.5,33.5z M-79.3,32.5h4v19.6
		h-2.2L-79.3,32.5z M-73.2,52.1V32.5h4l-1.9,19.6H-73.2z M-62.8,38.7h4v19.6h-2.2L-62.8,38.7z M-56.7,58.3V38.7h4l-1.9,19.6H-56.7z
		 M-48.5,38.7c0,0.6-0.5,1-1,1s-1-0.5-1-1V28.4h-2.1v8.3h-10.3v-8.3H-65v10.3c0,0.6-0.5,1-1,1s-1-0.5-1-1V26.6c0-0.9,0.6-1.7,1.5-2
		l4.3-1.2c0.6,0.8,1.8,1.9,3.5,1.9s2.9-1.1,3.5-1.9l4.3,1.2c0.9,0.3,1.5,1.1,1.5,2L-48.5,38.7L-48.5,38.7z M-46.3,32.5h4v19.6h-2.2
		L-46.3,32.5z M-40.2,52.1V32.5h4L-38,52.1H-40.2z M-31.9,32.5c0,0.6-0.5,1-1,1s-1-0.5-1-1V22.2h-2.1v8.3h-10.3v-8.3h-2.1V23
		c-0.3-0.2-0.6-0.3-0.9-0.4l-1.1-0.3v-1.9c0-0.9,0.6-1.7,1.5-2l4.3-1.2c0.6,0.8,1.8,1.9,3.5,1.9s2.9-1.1,3.5-1.9l4.3,1.2
		c0.9,0.3,1.5,1.1,1.5,2L-31.9,32.5L-31.9,32.5z"/>
</g>
<g transform="translate(0 -1)">
	<g>
		<g>
			<path class="st2" d="M128.3,45.5c2.7,3.8,5.3,7.2,7.1,9.3c0.3,0.3,0.5,0.6,0.7,0.9h-5.3c-0.6,0-1.1,0.5-1.1,1.1
				c0,0.6,0.5,1.1,1.1,1.1h17.3c0.6,0,1.1-0.5,1.1-1.1c0-0.6-0.5-1.1-1.1-1.1h-5.3c0.2-0.3,0.5-0.6,0.7-0.9c1.8-2.2,4.4-5.5,7.1-9.3
				c2.7-3.7,5-7.5,7.2-11.5c2.2-4.3,3.3-8,3.3-10.7c0-5.8-2.3-11.3-6.3-15.3c-0.3-0.3-0.7-0.4-1.1-0.3c-0.4,0.1-0.7,0.4-0.8,0.8
				c-0.1,0.4,0,0.8,0.3,1.1c3.7,3.7,5.7,8.6,5.7,13.8c0,2.4-1,5.7-3.1,9.7c-2.1,3.9-4.4,7.7-7,11.3c-2.6,3.7-5.3,7.1-7,9.2
				c-0.6,0.7-1.1,1.3-1.6,1.9c-0.2,0.2-0.5,0.4-0.8,0.4c-0.3,0-0.6-0.1-0.8-0.4c-0.4-0.5-1-1.2-1.6-1.9c-1.7-2.1-4.4-5.5-7-9.2
				c-2.6-3.6-4.9-7.3-7-11.3c-2.1-4-3.1-7.3-3.1-9.7c0-7.8,4.7-14.9,11.9-18c4.9-2,10.3-2,15.2,0c0.4,0.2,0.8,0.1,1.1-0.1
				c0.3-0.2,0.5-0.6,0.4-1c0-0.4-0.3-0.7-0.7-0.9c-11-4.7-23.7,0.5-28.4,11.5c-1.1,2.7-1.7,5.5-1.7,8.4c0,2.8,1.1,6.4,3.3,10.7
				C123.3,38,125.7,41.9,128.3,45.5z"/>
			<path class="st2" d="M139.5,13.5c0.6,0,1.1-0.5,1.1-1.1c0-0.6-0.5-1.1-1.1-1.1c-5.2,0-9.6,3.7-10.6,8.7s1.7,10.1,6.5,12.1
				s10.3,0.3,13.2-4c2.9-4.3,2.3-10-1.3-13.7c-0.3-0.3-0.7-0.4-1.1-0.3c-0.4,0.1-0.7,0.4-0.8,0.8c-0.1,0.4,0,0.8,0.3,1.1
				c2.9,2.9,3.4,7.5,1.1,10.9s-6.7,4.8-10.5,3.2c-3.8-1.6-6-5.6-5.2-9.7C131.8,16.4,135.4,13.5,139.5,13.5z"/>
			<path class="st2" d="M171.6,60.7l-6.7-11.9c-0.6-1.1-1.7-1.7-2.9-1.7h-7.7c-0.6,0-1.1,0.5-1.1,1.1c0,0.6,0.5,1.1,1.1,1.1h7.7
				c0.4,0,0.8,0.2,1.1,0.6l6.7,11.9c0.2,0.3,0.2,0.7,0,1c-0.2,0.4-0.6,0.6-1,0.6h-58.3c-0.4,0-0.8-0.2-1-0.6c-0.2-0.3-0.2-0.7,0-1
				l6.7-11.9c0.2-0.4,0.6-0.6,1.1-0.6h7.7c0.6,0,1.1-0.5,1.1-1.1c0-0.6-0.5-1.1-1.1-1.1H117c-1.2,0-2.3,0.6-2.9,1.7l-6.7,11.9
				c-0.6,1-0.5,2.2,0,3.2c0.6,1,1.7,1.7,2.9,1.6h58.3c1.2,0,2.3-0.6,2.9-1.6C172.1,62.9,172.1,61.7,171.6,60.7z"/>
			<path class="st2" d="M160.1,52.5h-4.3c-0.2,0-0.4,0.1-0.6,0.2l-3.3,2.2c-0.5,0.3-0.6,1-0.3,1.5c0.3,0.5,1,0.6,1.5,0.3l3-2h4
				c0.6,0,1.1-0.5,1.1-1.1C161.2,53,160.7,52.5,160.1,52.5z"/>
			<path class="st2" d="M153.6,60.1c0,0.6,0.5,1.1,1.1,1.1h8.7c0.6,0,1.1-0.5,1.1-1.1c0-0.6-0.5-1.1-1.1-1.1h-8.7
				C154.1,59,153.6,59.5,153.6,60.1z"/>
			<path class="st2" d="M126.5,56.8c0.5,0,0.9-0.3,1-0.8c0.1-0.5,0-1-0.4-1.2l-3.3-2.2c-0.2-0.1-0.4-0.2-0.6-0.2h-4.3
				c-0.6,0-1.1,0.5-1.1,1.1c0,0.6,0.5,1.1,1.1,1.1h4l3,2C126.1,56.8,126.3,56.8,126.5,56.8z"/>
			<path class="st2" d="M115.7,59c-0.6,0-1.1,0.5-1.1,1.1c0,0.6,0.5,1.1,1.1,1.1h8.7c0.6,0,1.1-0.5,1.1-1.1c0-0.6-0.5-1.1-1.1-1.1
				H115.7z"/>
		</g>
	</g>
</g>
<g id="XMLID_58_">
	<g id="XMLID_59_">
		<g id="XMLID_60_">
			<path id="XMLID_69_" class="st2" d="M57.5,13.1h2c0.7,0,1.2-0.6,1.2-1.2s-0.6-1.2-1.2-1.2h-4.7c-0.7,0-1.2,0.6-1.2,1.2v4.7
				c0,0.7,0.6,1.2,1.2,1.2c0.7,0,1.2-0.6,1.2-1.2v-1.4c3.8,5,5.8,11.2,5.8,17.5C61.8,48.9,48.7,62,32.5,62S3.2,48.9,3.2,32.7
				S16.3,3.4,32.5,3.4c1.2,0,2.4,0.1,3.6,0.2c0.7,0.1,1.3-0.4,1.4-1.1c0.1-0.7-0.4-1.3-1.1-1.4c-1.3-0.2-2.6-0.2-3.9-0.2
				C24,0.9,16,4.2,10,10.2c-6,6-9.3,14-9.3,22.5S4,49.2,10,55.2c6,6,14,9.3,22.5,9.3S49,61.2,55,55.2c6-6,9.3-14,9.3-22.5
				C64.3,25.5,61.9,18.7,57.5,13.1z"/>
			<path id="XMLID_68_" class="st2" d="M14.2,19.7c-0.6-0.4-1.3-0.2-1.7,0.4c-2.8,4.5-4.1,9.9-3.5,15.2c0.6,5.4,3,10.4,6.8,14.3
				c4.6,4.6,10.7,6.9,16.8,6.9s12.1-2.3,16.8-6.9c9.2-9.2,9.2-24.3,0-33.5c-3.8-3.8-8.9-6.2-14.3-6.8c-5.3-0.6-10.7,0.7-15.1,3.5
				c-0.6,0.4-0.8,1.1-0.4,1.7c0.4,0.6,1.1,0.8,1.7,0.4c8.4-5.3,19.2-4.1,26.3,3c8.3,8.3,8.3,21.7,0,30c-8.3,8.3-21.7,8.3-30,0
				c-7-7-8.2-18-2.9-26.3C14.9,20.8,14.7,20,14.2,19.7z"/>
			<path id="XMLID_67_" class="st2" d="M48.6,34h1.5c0.7,0,1.2-0.6,1.2-1.2s-0.6-1.2-1.2-1.2h-1.5c-0.7,0-1.2,0.6-1.2,1.2
				S47.9,34,48.6,34z"/>
			<path id="XMLID_66_" class="st2" d="M13.6,32.7c0,0.7,0.6,1.2,1.2,1.2h1.5c0.7,0,1.2-0.6,1.2-1.2c0-0.7-0.6-1.2-1.2-1.2h-1.5
				C14.1,31.4,13.6,32,13.6,32.7z"/>
			<path id="XMLID_65_" class="st2" d="M33.8,16.6V15c0-0.7-0.6-1.2-1.2-1.2c-0.7,0-1.2,0.6-1.2,1.2v1.5c0,0.7,0.6,1.2,1.2,1.2
				C33.2,17.8,33.8,17.3,33.8,16.6z"/>
			<path id="XMLID_64_" class="st2" d="M31.2,48.8v1.5c0,0.7,0.6,1.2,1.2,1.2c0.7,0,1.2-0.6,1.2-1.2v-1.5c0-0.7-0.6-1.2-1.2-1.2
				C31.8,47.6,31.2,48.1,31.2,48.8z"/>
			<path id="XMLID_63_" class="st2" d="M26.3,24.7c-0.5-0.5-1.3-0.5-1.8,0c-0.5,0.5-0.5,1.3,0,1.8l4.2,4.2c-0.3,0.6-0.5,1.3-0.5,2
				c0,2.4,1.9,4.3,4.3,4.3s4.3-1.9,4.3-4.3c0-0.7-0.2-1.4-0.5-2l8.5-8.5c0.5-0.5,0.5-1.3,0-1.8c-0.5-0.5-1.3-0.5-1.8,0l-8.5,8.5
				c-0.6-0.3-1.3-0.5-2-0.5c-0.7,0-1.4,0.2-2,0.5L26.3,24.7z M34.3,32.7c0,1-0.8,1.8-1.8,1.8c-1,0-1.8-0.8-1.8-1.8s0.8-1.8,1.8-1.8
				C33.5,30.9,34.3,31.7,34.3,32.7z"/>
			<path id="XMLID_62_" class="st2" d="M17.5,17.7c0.2-0.2,0.4-0.6,0.4-0.9c0-0.3-0.1-0.6-0.4-0.9c-0.2-0.2-0.5-0.4-0.9-0.4
				c-0.3,0-0.6,0.1-0.9,0.4c-0.2,0.2-0.4,0.6-0.4,0.9c0,0.3,0.1,0.6,0.4,0.9c0.2,0.2,0.6,0.4,0.9,0.4C16.9,18.1,17.3,17.9,17.5,17.7
				z"/>
			<path id="XMLID_61_" class="st2" d="M41.1,4.6c0.3,0,0.6-0.1,0.9-0.4c0.2-0.2,0.4-0.5,0.4-0.9c0-0.3-0.1-0.6-0.4-0.9
				c-0.2-0.2-0.6-0.4-0.9-0.4c-0.3,0-0.6,0.1-0.9,0.4c-0.2,0.2-0.4,0.6-0.4,0.9c0,0.3,0.1,0.6,0.4,0.9C40.4,4.5,40.8,4.6,41.1,4.6z"
				/>
		</g>
	</g>
</g>
</svg>
