<?xml version="1.0" encoding="utf-8"?>
<!-- Generator: Adobe Illustrator 22.0.1, SVG Export Plug-In . SVG Version: 6.00 Build 0)  -->
<svg version="1.1" id="Livello_1" xmlns="http://www.w3.org/2000/svg" xmlns:xlink="http://www.w3.org/1999/xlink" x="0px" y="0px"
	 viewBox="0 0 65 65" style="enable-background:new 0 0 65 65;" xml:space="preserve">
<style type="text/css">
	.st0{opacity:0.7;fill:#64C5B8;}
	.st1{fill:#727272;}
</style>
<g>
	<path class="st0" d="M54,44.6l-0.8,8.6h-8.3l-1-10.7c-1.8-0.2-3.6-0.4-5.6-0.5l-1.7,17.4h-8.3l-1.7-17.4c-2,0.1-3.8,0.3-5.6,0.5
		l-1,10.7h-8.3L11,44.6C4.1,46.8,0.5,50,0.5,53.1c0,5.5,11.2,11.4,32,11.4s32-5.8,32-11.4C64.5,50,60.9,46.8,54,44.6z"/>
	<path class="st1" d="M57.4,16.4l-4.2-1.2v-1.8c1.3-1.1,2.1-2.8,2.1-4.6V6.7c0-3.4-2.8-6.2-6.2-6.2s-6.2,2.8-6.2,6.2v2.1
		c0,1.8,0.8,3.5,2.1,4.6v1.8l-4.2,1.2c-1.8,0.5-3,2.1-3,4v1.3l-1-0.3v-1.8c1.3-1.1,2.1-2.8,2.1-4.6v-2.1c0-3.4-2.8-6.2-6.2-6.2
		s-6.2,2.8-6.2,6.2v2.1c0,1.8,0.8,3.5,2.1,4.6v1.8l-1,0.3v-1.3c0-1.8-1.2-3.5-3-4l-4.2-1.2v-1.8c1.3-1.1,2.1-2.8,2.1-4.6V6.7
		c0-3.4-2.8-6.2-6.2-6.2S9.8,3.3,9.8,6.7v2.1c0,1.8,0.8,3.5,2.1,4.6v1.8l-4.2,1.2c-1.8,0.5-3,2.1-3,4v12.1c0,1.7,1.4,3.1,3.1,3.1
		c0.5,0,1-0.1,1.4-0.3l1.8,18.9h10.1l1.2-13.1c0.5,0.4,1.2,0.7,1.9,0.7c0.5,0,1-0.1,1.4-0.3l1.8,18.9h10.1l1.8-18.9
		c0.4,0.2,0.9,0.3,1.4,0.3c0.7,0,1.4-0.3,1.9-0.7l1.2,13.1h10.1l1.8-18.9c0.4,0.2,0.9,0.3,1.4,0.3c1.7,0,3.1-1.4,3.1-3.1V20.4
		C60.4,18.5,59.1,16.9,57.4,16.4z M44.9,6.7c0-2.3,1.9-4.1,4.1-4.1s4.1,1.9,4.1,4.1v2.1c0,2.3-1.9,4.1-4.1,4.1s-4.1-1.9-4.1-4.1V6.7
		z M49,14.9c0.7,0,1.4-0.1,2.1-0.4v1.1c-0.3,0.4-1,1.3-2.1,1.3c-1.1,0-1.8-0.9-2.1-1.3v-1.1C47.6,14.8,48.3,14.9,49,14.9z
		 M28.4,12.9c0-2.3,1.9-4.1,4.1-4.1s4.1,1.9,4.1,4.1v2.1c0,2.3-1.9,4.1-4.1,4.1s-4.1-1.9-4.1-4.1V12.9z M32.5,21.1
		c0.7,0,1.4-0.1,2.1-0.4v1.1c-0.3,0.4-1,1.3-2.1,1.3s-1.8-0.9-2.1-1.3v-1.1C31.1,21,31.8,21.1,32.5,21.1z M11.9,6.7
		c0-2.3,1.9-4.1,4.1-4.1s4.1,1.9,4.1,4.1v2.1c0,2.3-1.9,4.1-4.1,4.1s-4.1-1.9-4.1-4.1V6.7z M16,14.9c0.7,0,1.4-0.1,2.1-0.4v1.1
		c-0.3,0.4-1,1.3-2.1,1.3s-1.8-0.9-2.1-1.3v-1.1C14.6,14.8,15.3,14.9,16,14.9z M7.7,33.5c-0.6,0-1-0.5-1-1V20.4c0-0.9,0.6-1.7,1.5-2
		l4.3-1.2c0.6,0.8,1.8,1.9,3.5,1.9s2.9-1.1,3.5-1.9l4.3,1.2c0.9,0.3,1.5,1.1,1.5,2v1.9l-1.1,0.3c-0.3,0.1-0.6,0.2-0.9,0.4v-0.8h-2.1
		v8.3H10.8v-8.3H8.8v10.3C8.8,33.1,8.3,33.5,7.7,33.5z M10.9,32.5h4v19.6h-2.2L10.9,32.5z M17,52.1V32.5h4l-1.9,19.6H17z M27.4,38.7
		h4v19.6h-2.2L27.4,38.7z M33.5,58.3V38.7h4l-1.9,19.6H33.5z M41.8,38.7c0,0.6-0.5,1-1,1s-1-0.5-1-1V28.4h-2.1v8.3H27.3v-8.3h-2.1
		v10.3c0,0.6-0.5,1-1,1c-0.6,0-1-0.5-1-1V26.6c0-0.9,0.6-1.7,1.5-2l4.3-1.2c0.6,0.8,1.8,1.9,3.5,1.9s2.9-1.1,3.5-1.9l4.3,1.2
		c0.9,0.3,1.5,1.1,1.5,2L41.8,38.7L41.8,38.7z M44,32.5h4v19.6h-2.2L44,32.5z M50,52.1V32.5h4l-1.9,19.6H50z M58.3,32.5
		c0,0.6-0.5,1-1,1s-1-0.5-1-1V22.2h-2.1v8.3H43.9v-8.3h-2.1V23c-0.3-0.2-0.6-0.3-0.9-0.4l-1.1-0.3v-1.9c0-0.9,0.6-1.7,1.5-2l4.3-1.2
		c0.6,0.8,1.8,1.9,3.5,1.9s2.9-1.1,3.5-1.9l4.3,1.2c0.9,0.3,1.5,1.1,1.5,2L58.3,32.5L58.3,32.5z"/>
</g>
</svg>
