<?xml version="1.0" encoding="utf-8"?>
<!-- Generator: Adobe Illustrator 22.0.1, SVG Export Plug-In . SVG Version: 6.00 Build 0)  -->
<svg version="1.1" id="Livello_1" xmlns="http://www.w3.org/2000/svg" xmlns:xlink="http://www.w3.org/1999/xlink" x="0px" y="0px"
	 viewBox="0 0 130 130" style="enable-background:new 0 0 130 130;" xml:space="preserve">
<style type="text/css">
	.st0{fill:#FF2800;}
	.st1{fill:#FFFFFF;}
</style>
<g>
	<path d="M85.2,2.4v4.4H44.7V2.4H85.2 M87.2,0.4H42.7v8.3h44.3L87.2,0.4L87.2,0.4z"/>
</g>
<g>
	<path d="M49,2.4v14.5h-4.2V2.4H49 M50.9,0.4h-8.2v18.4h8.2V0.4L50.9,0.4z"/>
</g>
<g>
	<path d="M85.2,2.4v14.5h-4.2V2.4H85.2 M87.2,0.4H79v18.4h8.2V0.4L87.2,0.4z"/>
</g>
<g>
	<path class="st0" d="M102.5,20.8c4.2,0,7.6,3.5,7.6,7.6v91.7c0,4.2-3.5,7.6-7.6,7.6h-75c-4.2,0-7.6-3.5-7.6-7.6V28.5
		c0-4.2,3.5-7.6,7.6-7.6L102.5,20.8 M102.5,18.8h-75c-5.3,0-9.6,4.2-9.6,9.6v91.7c0,5.3,4.2,9.6,9.6,9.6h75c5.3,0,9.6-4.2,9.6-9.6
		V28.5C112.1,23.1,107.8,18.8,102.5,18.8L102.5,18.8z"/>
</g>
<path class="st0" d="M100.8,25c2.9,0,5.1,2.3,5.1,5.1v88.1c0,2.9-2.3,5.1-5.1,5.1H29.1c-2.9,0-5.1-2.3-5.1-5.1V30.2
	c0-2.9,2.3-5.1,5.1-5.1L100.8,25 M100.8,23H29.1c-3.9,0-7.1,3.2-7.1,7.1v88.1c0,3.9,3.2,7.1,7.1,7.1h71.6c3.9,0,7.1-3.2,7.1-7.1
	V30.2C107.8,26.2,104.6,23,100.8,23L100.8,23z"/>
<g>
	<polygon class="st1" points="54.8,103.4 54.8,83.3 34.6,83.3 34.6,62.8 54.8,62.8 54.8,42.7 75.3,42.7 75.3,62.8 95.5,62.8 
		95.5,83.3 75.3,83.3 75.3,103.4 	"/>
	<path class="st0" d="M74.3,43.6v18.2v2h2h18.2v18.7H76.3h-2v2v18.2H55.8V84.3v-2h-2H35.6V63.7h18.2h2v-2V43.6H74.3 M76.3,41.7H53.8
		v20.1H33.6v22.4h20.1v20.1h22.4V84.3h20.1V61.9h-20V41.7L76.3,41.7z"/>
</g>
<rect x="21.3" y="69.2" class="st1" width="3.5" height="11.7"/>
<circle class="st0" cx="23" cy="69.2" r="1"/>
<circle class="st0" cx="23" cy="77" r="1"/>
<circle class="st0" cx="23" cy="80.8" r="1"/>
<circle class="st0" cx="23" cy="73" r="1"/>
<rect x="109.4" y="107.4" class="st1" width="2.7" height="7.7"/>
<circle class="st0" cx="111.2" cy="115.1" r="1"/>
<circle class="st0" cx="111.2" cy="107.4" r="1"/>
<circle class="st0" cx="111.2" cy="111.2" r="1"/>
<rect x="105.1" y="57.6" class="st1" width="2.7" height="7.7"/>
<circle class="st0" cx="106.9" cy="65.3" r="1"/>
<circle class="st0" cx="106.9" cy="57.6" r="1"/>
<circle class="st0" cx="106.9" cy="61.5" r="1"/>
<rect x="60.4" y="102.5" class="st1" width="7.7" height="2"/>
<circle class="st0" cx="68" cy="103.5" r="0.9"/>
<circle class="st0" cx="60.6" cy="103.5" r="0.9"/>
<circle class="st0" cx="64.3" cy="103.5" r="0.9"/>
<rect x="60.4" y="18.8" class="st1" width="7.7" height="2.4"/>
<circle class="st0" cx="68.4" cy="19.8" r="1"/>
<circle class="st0" cx="60.2" cy="19.8" r="1"/>
<circle class="st0" cx="64.3" cy="19.8" r="1"/>
</svg>
