<?xml version="1.0" encoding="utf-8"?>
<!-- Generator: Adobe Illustrator 22.0.1, SVG Export Plug-In . SVG Version: 6.00 Build 0)  -->
<svg version="1.1" id="Livello_1" xmlns="http://www.w3.org/2000/svg" xmlns:xlink="http://www.w3.org/1999/xlink" x="0px" y="0px"
	 viewBox="0 0 50 50" style="enable-background:new 0 0 50 50;" xml:space="preserve">
<style type="text/css">
	.st0{fill:#FFFFFF;}
</style>
<g>
	<path class="st0" d="M44.7,24.2v-1.3c0-1.4-1.1-2.5-2.5-2.5h-1.6c-1.4,0-2.5,1.1-2.5,2.5c-1.6-0.2-3.3-0.4-4.9-0.5v-1.1
		c0-1.4-1.1-2.5-2.5-2.5h-1.6c-1.4,0-2.5,1.1-2.5,2.5v0.8c-0.6,0-1.1,0-1.6,0c-0.5,0-1.1,0-1.6,0v-0.8c0-1.4-1.1-2.5-2.5-2.5h-1.6
		c-1.4,0-2.5,1.1-2.5,2.5v1.1c-1.6,0.1-3.3,0.3-4.9,0.5c0-1.4-1.1-2.5-2.5-2.5H7.8c-1.4,0-2.5,1.1-2.5,2.5v1.3
		c-2.9,0.9-4.9,2-4.9,3.6v6.6c0,0.6,0.3,1.1,0.8,1.4v1c0,1.4,1.1,2.5,2.5,2.5h1C5,40.3,5.9,41,6.9,41h2.5c0.4,0,0.8-0.1,1.2-0.3
		c0.4,0.7,1.2,1.1,2.1,1.1H16c0.4,0,0.8-0.1,1.2-0.3c0.4,0.7,1.2,1.1,2.1,1.1h4.1c0.6,0,1.2-0.2,1.6-0.6c0.4,0.4,1,0.6,1.6,0.6h4.1
		c0.8,0,1.6-0.4,2.1-1.1c0.4,0.2,0.8,0.3,1.2,0.3h3.3c0.8,0,1.6-0.4,2.1-1.1c0.4,0.2,0.8,0.3,1.2,0.3h2.5c1,0,2-0.7,2.3-1.6h1
		c1.4,0,2.5-1.1,2.5-2.5v-1c0.5-0.3,0.8-0.8,0.8-1.4v-6.6C49.6,26.3,47.6,25.1,44.7,24.2z M39.8,22.9c0-0.5,0.4-0.8,0.8-0.8h1.6
		c0.5,0,0.8,0.4,0.8,0.8v0.9c-1-0.2-2.1-0.4-3.3-0.6V22.9z M28.3,21.3c0-0.5,0.4-0.8,0.8-0.8h1.6c0.5,0,0.8,0.4,0.8,0.8v1
		c-1.1-0.1-2.2-0.1-3.3-0.1V21.3z M18.4,21.3c0-0.5,0.4-0.8,0.8-0.8h1.6c0.5,0,0.8,0.4,0.8,0.8v0.9c-1.1,0-2.2,0.1-3.3,0.1V21.3z
		 M6.9,22.9c0-0.5,0.4-0.8,0.8-0.8h1.6c0.5,0,0.8,0.4,0.8,0.8v0.2c-1.1,0.2-2.3,0.4-3.3,0.6V22.9z M25,23.8c14.9,0,23,2.7,23,4.1
		v4.9c-0.4-0.4-0.9-0.6-1.5-0.5c-0.5,0-1,0.2-1.5,0.5c-0.6-1-1.7-1.7-2.9-1.6c-1.1,0-2.2,0.5-2.9,1.3c-0.7-1.1-1.9-1.7-3.2-1.7
		c-1.3,0-2.5,0.6-3.4,1.6c-0.7-1.3-2.1-2-3.5-1.9c-1.7,0-3.2,0.8-4.1,2.2c-0.9-1.4-2.5-2.2-4.1-2.2c-1.4-0.1-2.8,0.7-3.5,1.9
		c-0.8-1-2.1-1.6-3.4-1.6c-1.3-0.1-2.5,0.6-3.2,1.7C10,31.5,9,31.1,7.9,31.1c-1.2,0-2.3,0.6-2.9,1.6c-0.4-0.3-0.9-0.5-1.5-0.5
		c-0.5,0-1.1,0.2-1.5,0.5v-4.9C2,26.5,10.1,23.8,25,23.8z M2.8,36.9v-2.2c0-0.1,0-0.9,0.6-0.9c0.6,0.1,1.1,0.7,1,1.3v2.6H3.7
		C3.2,37.7,2.8,37.4,2.8,36.9z M9.4,39.4H6.9c-0.5,0-0.8-0.4-0.8-0.8v-4.1c0-0.5,0.1-0.9,0.5-1.3c0.3-0.3,0.8-0.5,1.3-0.5
		c1.3,0,2.4,1.1,2.4,2.4v3.5C10.2,39,9.9,39.4,9.4,39.4z M16,40.2h-3.3c-0.5,0-0.8-0.4-0.8-0.8v-4.9c0-0.6,0.2-1.1,0.6-1.5
		c0.4-0.4,0.9-0.6,1.5-0.6c1.6,0,2.8,1.3,2.8,2.8v4.2C16.8,39.8,16.4,40.2,16,40.2z M23.4,41h-4.1c-0.5,0-0.8-0.4-0.8-0.8v-5.7
		c0-0.7,0.2-1.3,0.7-1.8c0.5-0.5,1.1-0.7,1.8-0.7c1.8,0,3.3,1.5,3.3,3.3v4.9C24.2,40.6,23.8,41,23.4,41z M31.6,40.2
		c0,0.5-0.4,0.8-0.8,0.8h-4.1c-0.5,0-0.8-0.4-0.8-0.8v-4.9c0-1.8,1.5-3.3,3.3-3.3c0.7,0,1.3,0.2,1.8,0.7c0.5,0.5,0.7,1.1,0.7,1.8
		V40.2z M38.1,39.4c0,0.5-0.4,0.8-0.8,0.8H34c-0.5,0-0.8-0.4-0.8-0.8v-4.2c0-1.6,1.3-2.8,2.8-2.8c0.6,0,1.1,0.2,1.5,0.6
		c0.4,0.4,0.6,0.9,0.6,1.5V39.4z M43.9,38.5c0,0.5-0.4,0.8-0.8,0.8h-2.5c-0.5,0-0.8-0.4-0.8-0.8v-3.5c0-1.3,1.1-2.4,2.4-2.4
		c0.5,0,0.9,0.1,1.3,0.5s0.5,0.8,0.5,1.3V38.5z M47.2,36.9c0,0.5-0.4,0.8-0.8,0.8h-0.8v-2.6c-0.1-0.6,0.4-1.2,1-1.3
		c0.6,0,0.6,0.7,0.6,0.9V36.9z"/>
	<path class="st0" d="M20.1,17.2c0.5,0,0.8-0.4,0.8-0.8v-6.2l1.1,1.1c0.3,0.3,0.8,0.3,1.2,0c0.3-0.3,0.3-0.8,0-1.2l-2.5-2.5
		c0,0,0,0,0,0c-0.1-0.1-0.2-0.1-0.2-0.2c0,0,0,0,0,0c-0.1,0-0.2,0-0.3-0.1c0,0-0.1,0-0.1,0c-0.1,0-0.1,0-0.2,0c0,0-0.1,0-0.1,0
		c-0.1,0-0.2,0.1-0.2,0.2L17,10.1c-0.3,0.3-0.3,0.8,0,1.2c0.3,0.3,0.8,0.3,1.2,0l1.1-1.1v6.2C19.3,16.8,19.6,17.2,20.1,17.2z"/>
	<path class="st0" d="M29.9,17.2c0.5,0,0.8-0.4,0.8-0.8v-6.2l1.1,1.1c0.3,0.3,0.8,0.3,1.2,0c0.3-0.3,0.3-0.8,0-1.2l-2.5-2.5
		c0,0,0,0,0,0c-0.1-0.1-0.2-0.1-0.2-0.2c0,0,0,0,0,0c-0.1,0-0.2,0-0.3-0.1c0,0-0.1,0-0.1,0c-0.1,0-0.1,0-0.2,0c0,0-0.1,0-0.1,0
		c-0.1,0-0.2,0.1-0.2,0.2l-2.5,2.5c-0.3,0.3-0.3,0.8,0,1.2c0.3,0.3,0.8,0.3,1.2,0l1.1-1.1v6.2C29.1,16.8,29.5,17.2,29.9,17.2z"/>
	<path class="st0" d="M41.4,18.8c0.5,0,0.8-0.4,0.8-0.8v-6.2l1.1,1.1c0.3,0.3,0.8,0.3,1.2,0c0.3-0.3,0.3-0.8,0-1.2L42,9.2
		c0,0,0,0,0,0c-0.1-0.1-0.2-0.1-0.2-0.2c0,0,0,0,0,0c-0.1,0-0.2,0-0.3-0.1c0,0-0.1,0-0.1,0c-0.1,0-0.1,0-0.2,0c0,0-0.1,0-0.1,0
		c-0.1,0-0.2,0.1-0.2,0.2l-2.5,2.5c-0.3,0.3-0.3,0.8,0,1.2c0.3,0.3,0.8,0.3,1.2,0l1.1-1.1V18C40.6,18.5,41,18.8,41.4,18.8z"/>
	<path class="st0" d="M7.8,18.8c0.5,0,0.8-0.4,0.8-0.8v-6.2l1.1,1.1c0.3,0.3,0.8,0.3,1.2,0c0.3-0.3,0.3-0.8,0-1.2L8.3,9.2
		c0,0,0,0,0,0C8.2,9.1,8.2,9.1,8.1,9.1c0,0,0,0,0,0C8,9,7.9,9,7.8,9c0,0-0.1,0-0.1,0C7.6,9,7.6,9,7.5,9c-0.1,0-0.2,0.1-0.3,0.2
		l-2.5,2.5c-0.3,0.3-0.3,0.8,0,1.2c0.3,0.3,0.8,0.3,1.2,0l1.1-1.1V18C6.9,18.5,7.3,18.8,7.8,18.8z"/>
</g>
</svg>
