<?xml version="1.0" encoding="utf-8"?>
<!-- Generator: Adobe Illustrator 22.0.1, SVG Export Plug-In . SVG Version: 6.00 Build 0)  -->
<svg version="1.1" id="Livello_1" xmlns="http://www.w3.org/2000/svg" xmlns:xlink="http://www.w3.org/1999/xlink" x="0px" y="0px"
	 viewBox="0 0 50 50" style="enable-background:new 0 0 50 50;" xml:space="preserve">
<style type="text/css">
	.st0{fill:#FFFFFF;}
</style>
<path class="st0" d="M2.6,23.3h0.8v5.8c0,1,0.6,1.9,1.5,2.3c0,0,0,0.1,0,0.1l1.6,9.7c0.2,1.2,1.2,2.1,2.5,2.1h3.6v1.7H9.2
	c-1.4,0-2.5,1.1-2.5,2.5c0,1.4,1.1,2.5,2.5,2.5h11.6c1.4,0,2.5-1.1,2.5-2.5c0-1.4-1.1-2.5-2.5-2.5h-3.3v-1.7h3.6
	c1.2,0,2.3-0.9,2.5-2.1l1.6-9.7c0,0,0-0.1,0-0.1c0.9-0.4,1.5-1.3,1.5-2.3v-5.8h0.8c1.4,0,2.5-1.1,2.5-2.5c0-1.4-1.1-2.5-2.5-2.5
	h-3.3V15c0-2.8-2.2-5-5-5h-1.7V8.3c0.7-0.1,1.3-0.4,1.7-0.9c0.4-0.5,0.6-1.2,0.5-1.9l-0.4-3.3C19.2,0.9,18.2,0,16.9,0h-3.7
	c-1.3,0-2.3,0.9-2.5,2.2l-0.4,3.3c-0.1,0.7,0.1,1.3,0.5,1.9c0.4,0.5,1,0.9,1.7,0.9V10h-1.7c-2.8,0-5,2.2-5,5v3.3H2.6
	c-1.4,0-2.5,1.1-2.5,2.5C0.1,22.2,1.2,23.3,2.6,23.3z M5.9,23.3c0.2,0,0.4,0,0.6-0.1c0.5,0.6,1.2,0.9,1.9,0.9h3.3v2.5H9
	c-1.7,0-3.3,1.1-3.9,2.7c0-0.1,0-0.1,0-0.2v-5.8H5.9z M16.7,26.6h-3.3V25h3.3V26.6z M21.7,47.4c0,0.5-0.4,0.8-0.8,0.8H9.2
	c-0.5,0-0.8-0.4-0.8-0.8c0-0.5,0.4-0.8,0.8-0.8h11.6C21.3,46.6,21.7,47,21.7,47.4z M15.9,44.9h-1.7v-1.7h1.7V44.9z M23.6,31.2
	L22,40.9c-0.1,0.4-0.4,0.7-0.8,0.7H9c-0.4,0-0.8-0.3-0.8-0.7l-1.6-9.7c-0.1-0.7,0.1-1.5,0.6-2c0.5-0.6,1.2-0.9,1.9-0.9h12.1
	c0.7,0,1.4,0.3,1.9,0.9C23.5,29.7,23.7,30.5,23.6,31.2z M25,29.1c0,0.1,0,0.1,0,0.2c-0.6-1.6-2.2-2.7-3.9-2.7h-2.7v-2.5h3.3
	c0.7,0,1.4-0.3,1.9-0.9c0.2,0,0.4,0.1,0.6,0.1H25V29.1z M27.5,20c0.5,0,0.8,0.4,0.8,0.8c0,0.5-0.4,0.8-0.8,0.8h-3.3
	c-0.5,0-0.8-0.4-0.8-0.8c0-0.5,0.4-0.8,0.8-0.8H27.5z M12,5.7l0.4-3.3c0.1-0.4,0.4-0.7,0.8-0.7h3.7c0.4,0,0.8,0.3,0.8,0.7l0.4,3.3
	c0,0.2,0,0.5-0.2,0.7s-0.4,0.3-0.6,0.3h-4.5c-0.2,0-0.5-0.1-0.6-0.3C12,6.2,11.9,6,12,5.7z M14.2,8.3h1.7V10h-1.7V8.3z M7.6,15
	c0-1.8,1.5-3.3,3.3-3.3h8.3c1.8,0,3.3,1.5,3.3,3.3v4c-1,0.9-1.1,2.3-0.3,3.3c-0.1,0.1-0.3,0.2-0.5,0.2H8.4c-0.2,0-0.4-0.1-0.5-0.2
	c0.8-1,0.6-2.5-0.3-3.3V15z M2.6,20h3.3c0.5,0,0.8,0.4,0.8,0.8c0,0.5-0.4,0.8-0.8,0.8H2.6c-0.5,0-0.8-0.4-0.8-0.8
	C1.8,20.3,2.1,20,2.6,20z"/>
<path class="st0" d="M25,4.2h2.6l0.2,1.2l-0.6,0.2c-0.6,0.2-1.1,0.6-1.3,1.1c-0.2,0.5-0.2,1.2,0,1.7l2.9,5.8
	c0.3,0.5,0.8,0.9,1.3,1.1c0.6,0.1,1.2,0,1.7-0.4l0.6-0.5L33,15l-1.9,1.9c-0.2,0.2-0.3,0.5-0.2,0.8c0.1,0.3,0.3,0.5,0.6,0.6
	c0.3,0.1,0.6,0,0.8-0.2l2.4-2.4c0.3-0.3,0.3-0.7,0.1-1l-0.9-1.3c0.9-1,1.3-2.3,1-3.7L39.1,5h6v22.5h-1.7v-9.1c0-1.4-1.1-2.5-2.5-2.5
	h-2.5c-1.4,0-2.5,1.1-2.5,2.5c0,0.5,0.4,0.8,0.8,0.8c0.5,0,0.8-0.4,0.8-0.8c0-0.5,0.4-0.8,0.8-0.8h2.5c0.5,0,0.8,0.4,0.8,0.8v9.1
	h-2.6c0.3-0.4,0.5-0.9,0.7-1.4l0.8-3.2c0.1-0.5,0-1-0.3-1.4c-0.3-0.4-0.8-0.6-1.3-0.6h-6.2c-0.5,0-1,0.2-1.3,0.6
	c-0.3,0.4-0.4,0.9-0.3,1.4l0.8,3.2c0.2,0.7,0.5,1.3,0.9,1.8c-0.7,0.4-1.2,1.3-1.2,2.1v17.5c0,1.4,1.1,2.5,2.5,2.5h13.3
	c1.4,0,2.5-1.1,2.5-2.5V29.9c0-0.4-0.1-0.7-0.2-1c0.1-0.2,0.2-0.4,0.2-0.6V2.5C50,1.1,48.9,0,47.5,0h-9.6c-0.7,0-1.4,0.3-1.9,0.8
	L32,5.4c-0.7-0.4-1.6-0.5-2.4-0.4l-0.4-1.9c-0.1-0.4-0.4-0.7-0.8-0.7H25c-0.5,0-0.8,0.4-0.8,0.8C24.2,3.8,24.6,4.2,25,4.2z M46.7,5
	h0.8c0.3,0,0.6-0.1,0.8-0.2v22.7h-0.3c-0.2,0-0.4-0.1-0.6-0.1h-0.8V5z M32.8,22.5H39l-0.8,3.2c-0.3,1.1-1.2,1.8-2.3,1.8
	c-1.1,0-2-0.7-2.3-1.8L32.8,22.5z M48.3,47.4c0,0.5-0.4,0.8-0.8,0.8H34.2c-0.5,0-0.8-0.4-0.8-0.8V29.9c0-0.5,0.4-0.8,0.8-0.8h11.3
	c0.1,0,0.2,0.1,0.3,0.1h2c0.3,0.1,0.5,0.4,0.5,0.8V47.4z M47.5,1.7c0.5,0,0.8,0.4,0.8,0.8c0,0.2-0.1,0.4-0.3,0.6
	c-0.2,0.2-0.4,0.2-0.6,0.2h-7.2c0.2-0.5,0.2-1.1,0-1.7H47.5z M37.3,1.9c0.2-0.2,0.4-0.3,0.6-0.3c0.3,0,0.6,0.2,0.8,0.5
	c0.1,0.3,0.1,0.6-0.1,0.9l-4.4,4.9L34,7.4c-0.1-0.2-0.2-0.3-0.3-0.5c0-0.1-0.1-0.1-0.1-0.1c-0.1-0.1-0.1-0.2-0.2-0.3c0,0,0,0,0,0
	L37.3,1.9z M30.1,6.7c0.6,0,1.1,0.2,1.6,0.5c0.3,0.3,0.6,0.6,0.8,1L33,9.3c0.1,0.1,0.1,0.3,0.2,0.4c0.2,0.7,0.1,1.5-0.3,2.2
	l-0.5-0.7c-0.3-0.4-0.8-0.5-1.1-0.2c-0.4,0.3-0.5,0.8-0.2,1.1l0.6,1L31,13.6c-0.1,0.1-0.2,0.1-0.3,0.1c-0.1,0-0.2-0.1-0.2-0.2
	l-2.9-5.8c0-0.1,0-0.2,0-0.3c0-0.1,0.1-0.2,0.2-0.2L28.3,7l0.1,0.6c0.1,0.4,0.4,0.7,0.8,0.7c0.1,0,0.1,0,0.2,0
	c0.2,0,0.4-0.2,0.5-0.4C30,7.8,30.1,7.5,30,7.3l-0.1-0.6C30,6.7,30,6.7,30.1,6.7z"/>
</svg>
