<?xml version="1.0" encoding="utf-8"?>
<!-- Generator: Adobe Illustrator 22.0.1, SVG Export Plug-In . SVG Version: 6.00 Build 0)  -->
<svg version="1.1" id="Livello_1" xmlns="http://www.w3.org/2000/svg" xmlns:xlink="http://www.w3.org/1999/xlink" x="0px" y="0px"
	 viewBox="0 0 130 130" style="enable-background:new 0 0 130 130;" xml:space="preserve">
<style type="text/css">
	.st0{display:none;}
	.st1{display:inline;}
	.st2{fill:#64C5B8;}
</style>
<g class="st0">
	<g class="st1">
		<path class="st2" d="M111.6,84.8c-0.4,1-0.7,2.2-1.3,3.1c-1.3,1.9-3.2,2.7-5.5,2.7c-1.2,0-2.3,0-3.6,0c0,0.3,0,0.5,0,0.8
			c0,1.6,0,3.2,0,4.9c0,1.1-0.4,1.9-1.5,2.4c-1,0.4-1.9,0.1-2.6-0.7c-2.3-2.3-4.6-4.6-6.9-6.9c-0.3-0.3-0.7-0.5-1.1-0.5
			c-5.6,0-11.2,0-16.8,0c-1.6,0-3.1-0.4-4.4-1.4c-1.2-0.9-2-2.1-2.3-3.6c0-0.2,0-0.5,0.2-0.7c1.2-1.3,2.5-2.5,3.7-3.7
			c0.2-0.2,0.6-0.3,0.9-0.3c6.6,0,13.1,0,19.7,0c2.8,0,5.3-0.8,7.5-2.7c2.6-2.2,3.9-5.1,3.9-8.5c0-3.1,0-6.3,0-9.4
			c0-0.2,0-0.5,0-0.8c2.3,0.1,4.6-0.4,6.7,0.8c1.9,1,3,2.6,3.3,4.7c0,0.1,0.1,0.3,0.1,0.4C111.6,71.8,111.6,78.3,111.6,84.8z"/>
		<path class="st2" d="M55,77.2c-1.7,0-3.4,0.1-5.1,0c-1,0-2-0.2-2.9-0.5c-2.8-1-4.7-3.7-4.7-6.6c0-7.6,0-15.1,0-22.7
			c0-3.9,3.2-7,7.2-7.1c0.6,0,1.2,0,1.8,0c13,0,25.9,0,38.9,0c3.8,0,6.7,2.3,7.5,5.9c0.1,0.6,0.2,1.2,0.2,1.7c0,7.2,0,14.4,0,21.7
			c0,3.7-2.3,6.7-5.7,7.5c-0.7,0.2-1.4,0.2-2.1,0.2c-7,0-14,0-21,0c-0.5,0-0.8,0.1-1.2,0.5c-2.9,2.9-5.8,5.8-8.7,8.7
			c-1.2,1.2-2.8,1.2-3.6-0.1c-0.3-0.5-0.5-1.1-0.5-1.7C55,82.2,55,79.7,55,77.2z"/>
	</g>
</g>
<g>
	<g>
		<path class="st2" d="M71.2,108.1c-0.1-4.4-0.2-8.8-0.5-13.2c-0.1-2.1-0.5-4.2-1-6.2C69,85,64.9,83.1,61,84.4
			c-2.4,0.8-3.8,2.3-4.3,4.8c-1.2,5.8-1.2,11.7-1.1,17.6c0.1,4.3,0,8.6-0.1,12.9c0,1.3-0.4,2.7-0.8,4c-1.3,4-4.2,5.6-8.8,5.3
			c-5.4-0.3-9.3-3.3-12.6-7.2c-3.2-3.7-5.6-8-7.4-12.5c-1.5-3.6-2.8-7.3-3.9-11c-1.2-4-1.4-8.1-1.8-12.2c-0.4-4.9-0.8-9.8-1.4-14.7
			c-0.6-5.3-2.8-10-5.2-14.7C11.3,52.2,9,47.7,7,43.2c-2.8-6.3-3-12.9-1.8-19.6c0.8-4.3,2.2-8.4,4.7-12.1c3.8-5.7,9.2-9,15.8-10.4
			c5.5-1.2,11-0.7,16.4,0.6c4.4,1.1,8.8,2.2,13.2,3.5c5.3,1.6,10.5,1.6,15.8,0c5.5-1.6,11.1-3.1,16.7-4.2c7.2-1.5,14.3-0.7,20.9,3
			c5.5,3.1,9.1,7.8,11.1,13.7c3.4,10,2.9,19.7-1.9,29.2c-2.1,4.1-4.2,8.1-6.3,12.1c-2.5,4.9-4,10.1-4.5,15.6
			c-0.5,5-0.8,10.1-1.2,15.1c-0.5,6.4-2.3,12.4-4.8,18.3c-2.1,4.8-4.5,9.4-7.8,13.5c-2.9,3.6-6.5,6.2-11.2,7.2
			c-2.4,0.5-4.7,0.3-6.9-0.9c-2.7-1.6-4-4.2-4.2-7.2c-0.3-3.7-0.2-7.3-0.2-11c0-0.5,0-1.1,0-1.6C71.1,108.1,71.2,108.1,71.2,108.1z
			 M65.8,10.8c2.6,1.1,5.1,2.2,7.6,3.1c2.6,0.9,5.2,1.3,7.9,0.7c1.8-0.4,3.5-1.1,5.2-1.7c1.2-0.4,2.1-0.2,2.7,0.9
			c0.6,1.1,0.3,2.2-0.8,2.8c-4.1,2.1-8.4,2.9-12.9,2.1c-4.4-0.8-8.3-2.7-12.2-4.7c-3.5-1.8-6.8-3.8-10.5-5
			c-4.8-1.6-9.7-2.7-14.6-3.8c-6-1.3-11.9-0.6-17.4,2.1c-3.2,1.6-5.6,3.9-7.6,6.8c-2.2,3.3-3.3,7-4,10.8c-1.1,6.5-0.4,12.8,2.4,18.8
			c2,4.1,4.2,8.1,6.2,12.2c1.4,2.9,2.7,5.9,3.7,8.9c1.5,4.2,1.8,8.7,2.2,13.2c0.5,5.2,0.4,10.4,1.5,15.5c0.4,1.8,0.6,3.7,1.1,5.4
			c1.5,5,3.4,9.8,6.1,14.3c1.4,2.4,3.1,4.7,4.9,6.9c1.9,2.3,4.3,4,7.4,4.6c4,0.8,6.4-0.4,6.8-4.4c0.3-3.1,0.3-6.2,0.2-9.3
			c-0.2-6.3-0.5-12.6,0.5-18.9c0.3-2.1,0.7-4.3,1.5-6.3c1.9-4.4,7-6.6,12.1-5.6c4.3,0.9,7.1,3.4,8.2,7.7c1,4,1.3,8,1.3,12.1
			c0.1,6.2-0.1,12.4-0.1,18.7c0,0.9,0.1,1.9,0.4,2.8c0.8,2.7,2.8,4,5.6,3.5c3.7-0.7,6.7-2.6,9.1-5.5c3.4-4,5.7-8.6,7.7-13.5
			c2.1-5.1,3.7-10.4,4.2-15.9c0.4-5.5,0.9-10.9,1.4-16.4c0.5-5,1.7-9.9,3.9-14.4c2-4.1,4.2-8.2,6.3-12.3c3.6-6.9,5.3-14,3.9-21.8
			c-0.8-4.5-2.2-8.7-5-12.3c-4.4-5.6-10.4-8-17.3-8.2c-3.3-0.1-6.6,0.4-9.8,1.2C79.1,7.3,72.6,9,65.8,10.8z"/>
		<path class="st2" d="M16.2,31.3c0.1-4.1,0.6-7.9,2.4-11.4c2.3-4.6,6.1-6.8,11.1-7.5c0.9-0.1,1.7-0.2,2.6-0.2
			c1.4,0,2.3,0.7,2.3,1.9c0,1.3-0.8,2-2.3,2.1c-1.2,0.1-2.4,0.1-3.6,0.3c-3.5,0.7-5.9,2.9-7,6.3c-1.6,4.7-1.9,9.5-0.2,14.2
			c0.5,1.2,0.1,2.2-0.8,2.7c-1.1,0.6-2.4,0.1-2.9-1.1C16.9,36.2,16.3,33.7,16.2,31.3z"/>
	</g>
</g>
</svg>
